<?xml version="1.0" encoding="utf-8"?>
<!-- Generator: Adobe Illustrator 27.1.1, SVG Export Plug-In . SVG Version: 6.00 Build 0)  -->
<svg version="1.1"
	 id="svg2" xmlns:svg="http://www.w3.org/2000/svg" xmlns:dc="http://purl.org/dc/elements/1.1/" xmlns:sodipodi="http://sodipodi.sourceforge.net/DTD/sodipodi-0.dtd" xmlns:rdf="http://www.w3.org/1999/02/22-rdf-syntax-ns#" xmlns:cc="http://creativecommons.org/ns#" xmlns:inkscape="http://www.inkscape.org/namespaces/inkscape" sodipodi:docname="africa.svg"
	 xmlns="http://www.w3.org/2000/svg" xmlns:xlink="http://www.w3.org/1999/xlink" x="0px" y="0px" viewBox="0 0 1000 1001"
	 style="enable-background:new 0 0 1000 1001;" xml:space="preserve">
<style type="text/css">
	.st0{fill-rule:evenodd;clip-rule:evenodd;fill:none;stroke:#000000;stroke-linejoin:round;}
	.st1{fill-rule:evenodd;clip-rule:evenodd;fill:#5F8088;stroke:#000000;stroke-linejoin:round;}
	.st2{fill:#FFFFFF;stroke:#003241;}
	.st3{fill-rule:evenodd;clip-rule:evenodd;fill:#F2F2F2;stroke:#000000;stroke-linejoin:round;}
	.st4{fill-rule:evenodd;clip-rule:evenodd;fill:#836953;stroke:#000000;stroke-linejoin:round;}
	.st5{fill-rule:evenodd;clip-rule:evenodd;fill:#2E5868;stroke:#000000;stroke-linejoin:round;}
	.st6{fill:#FFFFFF;stroke:#003241;stroke-width:1.0255;}
	.st7{fill-rule:evenodd;clip-rule:evenodd;fill:#B79777;stroke:#000000;stroke-linejoin:round;}
	.st8{fill-rule:evenodd;clip-rule:evenodd;fill:#6A917D;stroke:#000000;stroke-linejoin:round;}
	.st9{fill-rule:evenodd;clip-rule:evenodd;fill:#C6916A;stroke:#000000;stroke-linejoin:round;}
	.st10{fill-rule:evenodd;clip-rule:evenodd;fill:#B7D2D6;stroke:#000000;stroke-linejoin:round;}
	.st11{fill-rule:evenodd;clip-rule:evenodd;fill:#465850;stroke:#000000;stroke-linejoin:round;}
	.st12{fill-rule:evenodd;clip-rule:evenodd;fill:#8C8E62;stroke:#000000;stroke-linejoin:round;}
	.st13{fill-rule:evenodd;clip-rule:evenodd;fill:#FCD892;stroke:#000000;stroke-linejoin:round;}
</style>
<g>
	
		<sodipodi:namedview  bordercolor="#666666" borderopacity="1" gridtolerance="10" guidetolerance="10" id="namedview68" inkscape:current-layer="svg2" inkscape:cx="603.38628" inkscape:cy="543.55784" inkscape:pageopacity="0" inkscape:pageshadow="2" inkscape:window-height="480" inkscape:window-maximized="0" inkscape:window-width="640" inkscape:window-x="1456" inkscape:window-y="314" inkscape:zoom="0.33342098" objecttolerance="10" pagecolor="#ffffff" showgrid="false">
		</sodipodi:namedview>
	<path id="AO" inkscape:connector-curvature="0" class="st0" d="M478.9,598.6l-36-0.2l-4.3,1.7l-3.5-0.3l-5.1,1.9l-1.1,2.7l6,8.7
		l2.4,9.3l3.6,13.4l-3.8,5.5l-0.6,2.8l2.9,8.3l3.1,8.4l3.6,5l0.6,7.8l-1.4,10.3l-4,6.1l-7.1,9.1l-2.9,5.6l-4.1,12.5l-0.8,5.9
		l-4.3,12.7l-1.9,12.2l1,8.7l5.9-2.7l7.2-2.3l7.8,0.4l7.1,6.3l1.9-1l48.8-0.6l8.2,6.6l29.1,2l22.4-5.7l-7.6-8.6l-7.8-11.3l1.6-44
		l25.3,0.1l-1-4.7l2-5.2l-2-6.5l1.5-6.7l-1.2-4.3l-5.5-0.8l-7.6,2l-5.3-0.3l-3,1.3l0.9-16.5l-3.9-5.1l-0.8-8.5l1.9-8.4l-2.4-5.3
		l-0.1-8.7l-14.8,0.1l1.1-5l-6.2,0.1l-0.7,2.4l-7.6,0.5l-3.1,8.1l-1.9,3.4l-6.7-1.9l-4,1.9l-8.1,1.1l-4.6-7.2l-2.7-4.5l-3.5-8.3
		L478.9,598.6L478.9,598.6z M431.5,595.9l0.4-6l2-3.5l4.5-2.9l-4.6-4.8l-3.7,2.3l-5,6l3.3,10.4L431.5,595.9L431.5,595.9z"/>
	<path id="BI" inkscape:connector-curvature="0" class="st0" d="M652.6,556.1l-0.6-5.4l0,0l-6.5-0.9l-3.8,7.9l-7.4-1.1l3,6.3
		l0.1,2.4l4.3,13.2v0.6l1.2-0.2l4.5-5l4.9-7.2l3-2.9l-0.1-4.5L652.6,556.1L652.6,556.1z"/>
	<path id="BJ" inkscape:connector-curvature="0" class="st0" d="M323.6,356l-9.3-8l-4.3,0.1l-4.1,4l-2.6,4.2l-6,1.2l-2.5,6.1
		l-4.1,1.6l-1.6,7.2l3.7,4.1l4.3,4.9l0.4,6.8l2.5,2.8l-0.5,31.8l3,9.5l10.1-1.6l0.6-22.3l-0.3-8.8l2.3-8.7l3.7-4.3l5.9-8.5l-1.3-3.7
		l2.4-5.6l-2.8-8.2L323.6,356L323.6,356z"/>
	<path id="BF" inkscape:connector-curvature="0" class="st0" d="M284.3,310.8h-7.8l-3-2.6l-6.7,1.9l-11.3,5.8l-2.3,4.3l-9.4,6.2
		l-1.7,3.6l-5.1,2.8l-5.8-1.9l-3.4,3.4l-1.8,9.5l-9.7,11.4l0.3,4.7l-3.4,5.9l0.8,8l5.5,3l2.1,4.6l5.4,2.9l4.3-3.4l5.7-0.6l8.3,3.6
		l-1.6-10.4l0.3-7.9l21.1-0.6l5.4,1l3.9-2.2l5.6,1.1l10.7,0.3l4.1-1.6l2.5-6.1l6-1.2l2.6-4.2l0.3-9.5l-14-3.1l-0.4-6.7l-6.9-9
		l-1.6-6.3L284.3,310.8L284.3,310.8z"/>
	<g id="BW_00000067225455228188804140000010322143028443969438_">
		<path id="BW" inkscape:connector-curvature="0" class="st1" d="M584.2,762.7l-2.2-1l-6.9,3.1h-3.6l-7.9,5.4l-4.4-5.7l-18.7,4.9
			l-9,0.4l-1.9,49.3l-11.8,0.5l-1.4,40.4l3.2,2l6.5,13.2l-1.5,8.4l2.5,4.9l8.5-1.4l6.2-6.2l5.8-4.2l3.2-6.6l6-3.2l4.9,1.7l5.5,3.9
			l9.6,0.6l7.8-3.2l1.4-4.3l2.4-6.6l6.5-1.1l3.9-5.2l4.4-9.3l11.2-10.3l17.3-10.2l-7.3-6.2l-9.2-2.1l-3.1-8.8l0.2-4.9l-5.1-1.5
			l-13-15.2l-3.5-8l-2.3-2.4L584.2,762.7L584.2,762.7z"/>
		<path class="st2" d="M564.1,812.4c1.3,0,2.4-0.5,3.3-1.4c0.9-0.9,1.4-2,1.4-3.3c0-1.3-0.5-2.4-1.4-3.3c-0.9-0.9-2-1.4-3.3-1.4
			s-2.4,0.5-3.3,1.4c-0.9,0.9-1.4,2-1.4,3.3c0,1.3,0.5,2.4,1.4,3.3C561.7,811.9,562.8,812.4,564.1,812.4z M564.1,835.4
			c-6-5.3-10.5-10.3-13.4-14.8c-3-4.6-4.5-8.8-4.5-12.5c0-5.7,1.8-10.2,5.4-13.6c3.6-3.4,7.8-5.1,12.5-5.1s8.9,1.7,12.5,5.1
			c3.6,3.4,5.4,7.9,5.4,13.6c0,3.7-1.5,7.9-4.5,12.5C574.6,825.2,570.1,830.1,564.1,835.4z"/>
	</g>
	<path id="CF" inkscape:connector-curvature="0" class="st0" d="M570.6,398.1l-1-0.7l-4.2-4l-0.9-4.3l1.9-5.7l-0.1-5.7l-7.2-8.6
		l-1.5-5.9l-7.7,2.3l-6,5.6l-8.6,15.1l-11.3,6.4l-11.8-0.8l-3.4,1.2l1.2,4.9l-6.3,4.8l-5.1,5.4l-15.3,5.3l-3-3.1l-2.1-0.3l-2.2,3.6
		l-10,1l-6.1,14l-2.9,2.6l-0.8,10.7l1.2,5.8l-0.9,4.1l5.8,7.3l1,4.9l4.6,7.2l5.6,4.4l0.6,6.3l1.3,4l6.3-12.8l7.3-7.4l8.2,2.4
		l7.9,0.7l1-9.6l4.7-7.1l6.5-4.4l10.1,4.7l7.8,5.1l9,1.4l9.1,2.7l3.6-8.4l1.6-1.1l5.6,1.4l13.5-6.9l4.9,3l3.9-0.5l1.8-3.3l4.5-1.2
		l9.2,1.4l7.9,0.4l4-1.5l-2-4.4l-9.2-5.5l-3.2-8.3l-5.2-6l-8.3-7.2l-0.1-4.5l-6.8-5.5L570.6,398.1z"/>
	<path id="CI" inkscape:connector-curvature="0" class="st0" d="M214,373.8l-5,2.1l-2.9,1.7l-1.8-5.9l-3.5,1.6l-2.1-0.3l-2.3,4
		l-9.4-0.1l-3.3-2.1l-1.6,1.3l-2.5,1.1l-1,4.7l2.8,5.7l3,11.1l-4.6,1.6l-1.1,1.9l0.9,2.7l-0.8,6.1h-1.9l-0.6,4l1.2,6.7l-2.7,6.1
		l3.6,3.8l3.8,0.9l5.2,5.8l0.3,5.5l-1.1,1.7l-1,11.4l2.3,0.4l12.1-5.1l8.5-4l14.5-2.4l7.8-0.2l8.5,2.7l5.6-0.1l0.5-5.5l-5.2-11.9
		l3.2-15.6l5.1-11.6l-3.2-19.7l-8.3-3.6l-5.7,0.6l-4.3,3.4l-5.4-2.9l-2.1-4.6L214,373.8L214,373.8z"/>
	<path id="CM" inkscape:connector-curvature="0" class="st0" d="M461.1,366.6l0.4-9.2l-1-9.1l-4.9-8.9l-3.4,0.8l-0.4,4.4l4.9,5.5
		l-1.3,2.5l-0.5,4.6l-10.2,10.7l-3.1,8.8l-1.6,7.2l-2.6,3.1l-2.4,9.7l-6.4,5.7l-1.9,7L424,415l-1.1,5.7l-8.3,4.7l-6.9-5.7l-4.6,0.2
		l-7.2,8.1l-3.6,0.1l-5.7,13.4l-3.1,9.8l-0.1,3.8l3.1,2l2.5,6.2l5.6,2.3l4.8,9.2l-1.8,10.9l19.9,0.3l5.8-0.9l7.4,1.9l7.3-1.8
		l1.5,0.7l15.4,0.6l9.9,3.6l9.7,3.3l0.9-7.5l-1.3-4l-0.6-6.3l-5.6-4.4l-4.6-7.2l-1-4.9l-5.8-7.3l0.9-4.1l-1.2-5.8l0.8-10.7l2.9-2.6
		l6.1-14l1.8-3.7l-3.9-9.6l-1.8-5.7l-5.3-2.3l-7.2-8.1l2.5-6.5l5.6,1.3l3.4-0.9l6.8,0.1L461.1,366.6L461.1,366.6z"/>
	<path id="CD" inkscape:connector-curvature="0" class="st0" d="M601.9,446l-9.2-1.4l-4.5,1.2l-1.8,3.3l-3.9,0.5l-4.9-3l-13.5,6.9
		l-5.6-1.4l-1.6,1.1l-3.6,8.4l-9.1-2.7l-9-1.4l-7.8-5.1l-10.1-4.7l-6.5,4.4l-4.7,7.1l-1,9.6l-0.7,8.4l-3.6,7.4l-2.4,8.6l-1.5,12.3
		l0.7,7.8l-2,4.8l-0.3,5.1l-1.4,4.4l-8.1,6.7l-5.6,7.1l-5.3,13.4l0.3,11.4l-3.1,4.4l-7.2,6.8l-7.2,8.7l-4.5-2.5l-0.8-3.9l-6.6-0.1
		l-4.2,5.3l-3.2-1.4l-4.5,2.9l-2,3.5l-0.4,6l-3.1,1.5l1.6,4.3l5.1-1.9l3.5,0.3l4.3-1.7l36,0.2l2.9,10.3l3.5,8.3l2.7,4.5l4.6,7.2
		l8.1-1.1l4-1.9l6.7,1.9l1.9-3.4l3.1-8.1l7.6-0.5l0.7-2.4l6.2-0.1l-1.1,5l14.8-0.1l0.1,8.7l2.4,5.3l-1.9,8.4l0.8,8.5l3.9,5.1
		l-0.9,16.5l3-1.3l5.3,0.3l7.6-2l5.5,0.8l4.2,0.3l0.6,4.3l5.7-0.3l7.7,1.3l3.9,6.2l9.7,2l7.5-4.4l2.6,7.3l9.2,1.9l4.3,5.9l4.8,7.6
		l9.3,0.1l-0.6-14.9l-3.4,2.5l-8.4-5.4l-3.2-2.4l1.9-13.9l2.5-16.4l-2.6-6.1l3.6-8.8l3.3-1.7l16.4-2.3l2.1,0.6l0.6-2.3l-3.4-3.7
		l-1.5-7.6l-7.3-7.6l-4.1-9.9l2.3-5.8l-3.2-7.8l2.4-22.1l0.1,0.2l-0.1-2.4l-3-6.3l1.2-7.6l1.7-1l0.5-8.3l3.5-3.8l0.1-10.5l2.9-5.3
		l0.6-11.1l2.6-6.4l4.6-7.2l4.7-3.7l3.9-4.9l-4.9-1.9l0.6-16.1l0,0l-10.9-9.2l-2.9-5.9l-6.8,2.9l-5.7-0.9l-3.2,2.3l-5.5-1.7
		l-7.5-11.4l-4,1.5L601.9,446L601.9,446z"/>
	<path id="CG" inkscape:connector-curvature="0" class="st0" d="M505.1,468.8l-7.9-0.7l-8.2-2.4l-7.3,7.4l-6.3,12.8l-0.9,7.5
		l-9.7-3.3l-9.9-3.6l-15.4-0.6l-0.9,6.1l3.4,7.1l9.1-1.1l3.1,2.7l-5.3,16.1l5.8,8.2l1.3,10.8l-1.6,9.2l-3.7,6.5l-10.8-0.6l-6.5-6.6
		l-1,6.1l-8.3,1.7l-4.2,3.5l4.6,9.1l-9.3,7.7l9.9,14.6l5-6l3.7-2.3l4.6,4.8l3.2,1.4l4.2-5.3l6.6,0.1l0.8,3.9l4.5,2.5l7.2-8.7
		l7.2-6.8l3.1-4.4l-0.3-11.4l5.3-13.4l5.6-7.1l8.1-6.7l1.4-4.4l0.3-5.1l2-4.8l-0.7-7.8l1.5-12.3l2.4-8.6l3.6-7.4L505.1,468.8
		L505.1,468.8z"/>
	<path id="DJ" inkscape:connector-curvature="0" class="st0" d="M803.9,358.7l-5.3-3.8l6.8-3.3l0.1-5.7l-3-4.3l-3.6,3.4l-5.2-1.2
		l-4,6.1l-3.9,6.5l1.1,3.8l0.3,4.2l6.8,0.2l2.9-0.9l2.8,2.4L803.9,358.7L803.9,358.7z"/>
	<path id="DZ" inkscape:connector-curvature="0" class="st0" d="M376,5.7l-7.8,0.8l-4.8-3.2l-12.2,0.1l-10.6,5.5l-5.8-2.1L315.9,8
		l-19.4,2.5l-11,4.3l-7.2,5.8L265.9,23l-11.1,7.7l4.2,9l0.7,8.4l3.9,14.7l3.1,2.9l-2.2,5.4l-15.2,2.3l-5.4,5.1l-6.7,1.2l-0.6,10.2
		l-13.8,5.4l-4.6,7l-9.6,3.7l-11.8,2.1l-19.2,10.2l-0.2,16.3v1l-0.3,2.7l44.1,33.5l40,30.2l40.4,30.2l2.9,6.4l7.5,4l5.5,2.2l0.2,8.8
		l13.3-1.3l16.9-6.2l34.5-27.1l40.5-26.4l-5.4-8.7l-9.6-6.4l-5.5,2.5l-4.3-7.7l-0.6-5.9l-7.2-10.1l4.6-5.8l-1.3-8.7l1.4-7.6l-1-6.3
		l1.8-11.3l-0.8-6.4L390.9,98l-5.7-24.7l-7.3-5.6l-0.2-3.3l-9.7-8.3l-1.3-10.4l7-7.8l2.4-11.6l-2.3-13.4L376,5.7L376,5.7z"/>
	<path id="EG" inkscape:connector-curvature="0" class="st0" d="M612.4,88.1l-11.9-4L589,80.4l-15.6,0.2l-3.7,6.6l2.2,5.9l-2.4,8.5
		l4.2,11.2l2.9,49.2l2.2,50.9h48.1h46.4h47.4l-2.2-2.8l-14.7-12.4l-0.9-9l2.2-2.4L693.5,171l-4.4-7.9l-4.9-7.5L673.7,134l-8.4-13.9
		l-6.1-14.5l1.1-1.3l10.1,19.8l5.8,6.2l4.3,4.4l2.5-2.4l2.7-7.2l1.6-10.4l2.8-5.6l-1.5-3.5l-8.5-20.1l0,0l-5.4,3.4l-9.2-0.8
		l-9.6-3.2l-2.3,4.5l-3.8-6.8l-8.5-1.8L631.1,82l-4.5,3.9l-8.6,4.4L612.4,88.1L612.4,88.1z"/>
	<path id="ER_00000168090081453408072420000014382165556107356558_" inkscape:connector-curvature="0" class="st0" d="M798.9,345
		l3.6-3.4l-6.2-4.2l-4-4.7l-6.9-8l-7.1-7.9l-17.1-13v0l-7-6.8l-4-12.7l-7.8-16l-5.7,7.9l-8.8,2.3l-3.6,4.2l-0.7,9.2l-4.3,20.3
		l1.5,5.6"/>
	<path id="ER_00000052106030235477776480000017727788573627372208_" inkscape:connector-curvature="0" class="st0" d="M789.4,339.3"
		/>
	<path id="ER_00000137836465370008234280000014920276033370590654_" inkscape:connector-curvature="0" class="st3" d="M753,313.4"/>
	<path id="ET_00000052079473634476016180000003601481211884786847_" inkscape:connector-curvature="0" class="st3" d="M764.3,316.4"
		/>
	<path id="ET_00000062882880496314586660000005801349238366464904_" inkscape:connector-curvature="0" class="st3" d="M778.5,326.8"
		/>
	<path id="ET_00000004529024870522579400000006078206137299914901_" inkscape:connector-curvature="0" class="st3" d="M789.4,339.3"
		/>
	<path id="ET_00000102510042442437816900000000293406490492429739_" inkscape:connector-curvature="0" class="st0" d="M720.8,317.8
		l-1.4,11.9l-4.5,13.6l-7.1,6.8l-4.8,10.6l-1.1,5.7l-5.6,3.8l-3.3,14.5l0.1,1.7l0.4,10.8l-1.8,4.2l-6.4,0.3l-4,7.9l7.5,1l6.3,6.7
		l2.2,5.6l5.7,3.2l7.4,15l6.4,2.4l0.1,7.7l4.2,4.6h8.5l15.7,11.7l3.8,0.2l2.9-0.4l2.7,1.6l8.2,1.1l3.5-5.8l11.1-5.8l4.9,4.7h8.4
		l3.3-4.4l7.8-0.2l10.7-9.8l15.9-0.6l33.5-41.5l-10.3,0.1l-40.3-16.4l-4.8-5l-4.6-6.6l-4.8-7.7l2.5-4.9l-2.8-2.4l-2.9,0.9l-6.8-0.2
		l-0.3-4.2l-1.1-3.8l3.9-6.5"/>
	<path id="GA" inkscape:connector-curvature="0" class="st0" d="M439.5,485.9l-1.5-0.7l-7.3,1.8l-7.4-1.9l-5.8,0.9l0.1,16.7
		l-17.7-0.2l-4.2,0.8l-2.4,10.3l-3,10.1l-2.7,4.4l-0.3,4.6l7.3,14.3l8.1,11.4l12.5,14l9.3-7.7l-4.6-9.1l4.2-3.5l8.3-1.7l1-6.1
		l6.5,6.6l10.8,0.6l3.7-6.5l1.6-9.2l-1.3-10.8l-5.8-8.2l5.3-16.1l-3.1-2.7l-9.1,1.1l-3.4-7.1L439.5,485.9L439.5,485.9z"/>
	<path id="GH" inkscape:connector-curvature="0" class="st0" d="M280,364.9l-5.6-1.1l-3.9,2.2l-5.4-1l-21.1,0.6l-0.3,7.9l1.6,10.4
		l3.2,19.7l-5.1,11.6l-3.2,15.6l5.2,11.9l-0.5,5.5l10.9,3.9l11-4l6.7-4.7l19.2-8.1l-2.8-4.9l-3.2-8.8l-1-6.8l2.7-12.5l-3-5
		l-1.2-10.9v-10.1l-5.1-7.1L280,364.9L280,364.9z"/>
	<path id="GN" inkscape:connector-curvature="0" class="st0" d="M140,345.2l-1.8,0.7l-6.6-1.1l-0.9,1.6l-2.7,0.3l-8.7-3.4l-5.8-0.1
		l-0.3,4.7l-1.3,1.4l0.9,4.6l-1.9,1.8l-2.7,0.1l-3.2,2.3l-3.7-0.3l-5.5,6.8l3.6,2.2l1.7,3.1l1.3,6.1l3,2.7l3.1,1.8l4.7,5.4l5.3,8.2
		l6.5-6.1l1.5-3.8l2.1-3l3.3-0.3l2.9-2.6h9.7l3.3,5l2.6,5.8l-0.4,4l1.9,3.6l-0.1,5.1l3.3-0.8l2.6-0.3l3.2-1.6l5.1,8.5l-0.9,5.6
		l2.4,2.9l3.4,0.1l2.6-5.6l3.4,0.4h1.9l0.8-6.1l-0.9-2.7l1.1-1.9l4.6-1.6l-3-11.1l-2.8-5.7l1-4.7l2.5-1.1l-3.7-4l0.7-4.1l-1.6-1.6
		l-2.6,1.3l0.6-4.5l2.5-3.5l-5-5.8l-1.4-3.8l-2.7-3.1l-2.4-0.3l-2.9,1.9l-4,1.8l-3.3,3l-5.2-1.1l-3.3-3.5l-2-0.4l-3.2,1.8h-2
		L140,345.2L140,345.2z"/>
	<path id="GW_00000062905632144299342240000014522467711665672380_" inkscape:connector-curvature="0" class="st0" d="M95.8,364.6
		l5.5-6.8l3.7,0.3l3.2-2.3l2.7-0.1l1.9-1.8l-0.9-4.6l1.3-1.4l0.3-4.7l0,0l-22.4-0.6l-3.3,1.6l-4-0.5l-6.5,2.3"/>
	<path id="GQ" inkscape:connector-curvature="0" class="st0" d="M417.5,486l-19.9-0.3l-4.1,15.5l2.2,2.1l4.2-0.8l17.7,0.2L417.5,486
		L417.5,486z"/>
	<g id="KE_00000067947954476339392060000016483361465923802500_">
		<path id="KE" inkscape:connector-curvature="0" class="st4" d="M790.8,463.1h-8.4l-4.9-4.7l-11.1,5.8l-3.5,5.8l-8.2-1.1l-2.7-1.6
			l-2.9,0.4l-3.8-0.2l-15.7-11.7h-8.5l-4.2-4.6l-0.1-7.7l-6.4-2.4l-8.1,9.1l-7.4,8.3l5.9,9.6l1.5,7l5.5,15.8l-4.4,10.1l-5.9,9.2
			l-3.5,5.6v0.7l2.9,5.2l-0.8,10.3l44.1,28.2l0.7,8l17.3,13.8l5-4.6l2.5-9.2l4-5.5l1.9-9.8l4.6-1l3.1-5.8l8.6-5.5l-7.2-11.4
			l-0.4-50.4L790.8,463.1L790.8,463.1z"/>
		<path class="st2" d="M742.4,505.7c1.3,0,2.4-0.5,3.3-1.4c0.9-0.9,1.4-2,1.4-3.3s-0.5-2.4-1.4-3.3c-0.9-0.9-2-1.4-3.3-1.4
			s-2.4,0.5-3.3,1.4c-0.9,0.9-1.4,2-1.4,3.3s0.5,2.4,1.4,3.3C740,505.2,741.1,505.7,742.4,505.7z M742.4,528.7
			c-6-5.3-10.5-10.3-13.4-14.8c-3-4.6-4.5-8.8-4.5-12.5c0-5.7,1.8-10.2,5.4-13.6c3.6-3.4,7.8-5.1,12.5-5.1s8.9,1.7,12.5,5.1
			c3.6,3.4,5.4,7.9,5.4,13.6c0,3.7-1.5,7.9-4.5,12.5C752.9,518.5,748.4,523.4,742.4,528.7z"/>
	</g>
	<path id="LR" inkscape:connector-curvature="0" class="st0" d="M176.9,411l-3.4-0.4l-2.6,5.6l-3.4-0.1l-2.4-2.9l0.9-5.6l-5.1-8.5
		l-3.2,1.6l-2.6,0.3l-5.7,6.5l-5.5,7.5l-0.7,4l-2.9,4.4l8.1,8.9l10.4,7.6l11,10.5l12.6,6.6l3.2-0.1l1-11.4l1.1-1.7l-0.3-5.5
		l-5.2-5.8l-3.8-0.9l-3.6-3.8l2.7-6.1l-1.2-6.7L176.9,411L176.9,411z"/>
	<path id="LY" inkscape:connector-curvature="0" class="st0" d="M573.4,80.6l-3.1-4.5l-11.7-1.6l-3.9-2.4h-4.4l-4.4-6.2L530,63.1
		l-7.9,1.8l-7.9,6.5l-3.3,6.7l3.4,10.6L509,95l-5.5,3.6l-12.9-6.9L473.9,86l-10.6-2.7L457.2,71l-15.7-6.1l-9.8-2.3l-4.8,1.2
		L413.1,59l-0.3,10.6l-5.6,4l-3.4,4.4l-7.9,5.3l1.5,5.7l-0.9,5.8l-5.6,3.2l4.1,12.2l0.8,6.4l-1.8,11.3l1,6.3l-1.4,7.6l1.3,8.7
		l-4.6,5.8l7.2,10.1l0.6,5.9l4.3,7.7l5.5-2.5l9.6,6.4l5.4,8.7l19,6l6.9,7.5l8.3-5.1l11.9-7.6l48.4,26.5l48.7,26.5l-0.1-5.8h13.8
		l-1-27.7l-2.2-50.9l-2.9-49.2l-4.2-11.2l2.4-8.5l-2.2-5.9L573.4,80.6L573.4,80.6z"/>
	<path id="LS" inkscape:connector-curvature="0" class="st0" d="M608.9,939.9l2.5-4.4l6.7-2.2l2.4-4.5l4.1-6.7l-3.8-4.2l-4.8-4.2
		l-5.7,2.8l-6.8,5.4l-6.9,8.7l8,10.6L608.9,939.9L608.9,939.9z"/>
	<path id="MA_00000041270250722851948240000000679689603082267291_" inkscape:connector-curvature="0" class="st0" d="M177.6,118.3
		l19.2-10.2l11.8-2.1l9.6-3.7l4.6-7l13.8-5.4l0.6-10.2l6.7-1.2l5.4-5.1l15.2-2.3l2.2-5.4l-3.1-2.9l-3.9-14.7l-0.7-8.4l-4.2-9l0,0
		l-5-0.1l-11.9-3.1l-11,0.9l-6.8-5.9l-8.5-0.1l-3.8,8.6l-8,14.5l-8.7,5.7l-11.8,6.4l-7.7,9.3l-1.8,7.3L165,86l2.5,17.2l-10.1,11.5
		l-6,3.7l-9.6,9.4l-11,1.6l-6.1,5.3l-0.2,0.2l-7.9,14.1l-8.1,5.1l-4.5,8.5l-0.5,7.4l-3.4,8.1l-4,2.2l-6.9,8.8l-4.4,9.8l0.7,4.6
		l-4.1,7.3l-4.7,3.7l-0.8,6.4l0.2,0.1l-0.8,5.8"/>
	<path id="MA_00000117638782047227283030000010015241667119856319_" inkscape:connector-curvature="0" class="st3" d="M175.6,134.6"
		/>
	<path id="MA_00000102512511829523680590000016375177600399010236_" inkscape:connector-curvature="0" class="st3" d="M168.4,142.5"
		/>
	<path id="MA_00000106111119479764239900000014996651818221234363_" inkscape:connector-curvature="0" class="st3" d="M159.1,145.7"
		/>
	<path id="MA_00000042012288941745883020000002875651443268343692_" inkscape:connector-curvature="0" class="st3" d="M137,157.2"/>
	<path id="MA_00000034811814325468382450000003284832731825430958_" inkscape:connector-curvature="0" class="st3" d="M114.1,189.6"
		/>
	<path id="MA_00000005975906211041947410000015723754795010852273_" inkscape:connector-curvature="0" class="st3" d="M104.7,214.9"
		/>
	<path id="MG" inkscape:connector-curvature="0" class="st0" d="M886.5,704.8l-2.5-9.1l-3-5.9l-3.9-5.9l-4.3,6.2l-0.7,8.3L865,708
		l-5.1-1.7l1.3,6l-4,6.9l-10.4,8.5l-7.3,7.9l-5.4,0.2l-4.6,2.5l-6.9,2.8l-6,0.6l-2.2,8.7l-4.7,7.8l0.2,12.7l1.7,8.7l2.4,6.6
		l-1.7,8.8l-6.4,10.5l-0.3,4.6l-5.7,2.4l-2.8,10l0.4,9.9l3.4,11l-0.1,12.3l2.6,7.3l9.1,5l6.5,3.5l10.9-5.8l9.9-3.3l6.8-16.1
		l6.1-19.2l9.3-26.2l7.3-19.1l5.9-16.1l1.6-11.7l3.5-3.2l1.5-5.9l-1.7-10.2l2.6-4.1l3.5,8.1l2.4-4.1l1.7-6.6l-2.8-6.5L886.5,704.8z"
		/>
	<path id="ML" inkscape:connector-curvature="0" class="st0" d="M331,252.3l-13.3,1.3l-0.2-8.8l-5.5-2.2l-7.5-4l-2.9-6.4L261.2,202
		l-40-30.2L203,172l5.1,59.7l5.4,59.7l2,1.8l-2.7,9.6l-48.5,0.2l-1.9,3.1l-4.6-0.9l-6.9,2.7l-8.4-3.8l-3.8,0.3l-2.2,8.2l-4.1,2.5
		l0.4,8.6l2.3,7.9l4.5,3.9l1,5.3l-0.6,4.4l0.6,5h2l3.2-1.8l2,0.4l3.3,3.5l5.2,1.1l3.3-3l4-1.8l2.9-1.9l2.4,0.3l2.7,3.1l1.4,3.8
		l5,5.8l-2.5,3.5l-0.6,4.5l2.6-1.3l1.6,1.6l-0.7,4.1l3.7,4l1.6-1.3l3.3,2.1l9.4,0.1l2.3-4l2.1,0.3l3.5-1.6l1.8,5.9l2.9-1.7l5-2.1
		l-0.8-8l3.4-5.9l-0.3-4.7l9.7-11.4l1.8-9.5l3.4-3.4l5.8,1.9l5.1-2.8l1.7-3.6l9.4-6.2l2.3-4.3l11.3-5.8l6.7-1.9l3,2.6h7.8l7.7-0.6
		l4.5-4.9l16.5-1.2l10.7-2.2l1-8.5l6.6-9.2L331,252.3L331,252.3z"/>
	<g id="MZ_00000037665564953405233990000008510761831107627706_">
		<path id="MZ" inkscape:connector-curvature="0" class="st5" d="M771.8,666.2l-1.7-6.2l0,0l0,0l-10,8.1l-13.4,5.3l-7.3-0.2
			l-4.5,4.2l-8.4,0.3l-3.3,1.8l-14.4-3.9l-4.7,0.5l-3.3,13.1l1.4,15.8h0.7l4.2,4.4l4.6,10l0.3,17.8l-5.4,3l-4.1,9.6l-7.5-8.6
			l-0.5-9.7l2.9-6.5l-0.5-5.5l-4.7-3.5l-3.3,1.2l-6.8-6.6L645,722l0.8,9.9l0.6,5.1l10-0.3l5.5,3l2.5,3.4l5.7,1l6.1,4.4l-0.8,17.5
			l-2.8,9.6l-1,10.4l1.7,4.1l-1.7,8.1l-1.9,1.3l-3.6,9.9l-13.4,15.7l4.7,19.5l2.5,9.9l-3,15.4l0.7,5l1.3,6.2l0.6,6.1l9,0.1l1.5-7.3
			l-2.9-0.9l-0.6-5.8l5.5-5.2l14.8-7.5l10.1-4.6l5.3-5l2.1-5.7l-2.7-2.4l2.4-6.4l1.1-13.6l-2.2,0.7l0.1-4.1l-1.9-8.1l-5.2-10.5
			l1.6-9.9l5.1-3.2l8.9-9.8l4.7-2.5l14.4-14.9l14-6.7l11.3-5.3l8.1-8.5l5.2-9.6l4.1-9.9l-1.8-6.8l0.4-21.6l-1-12.2L771.8,666.2
			L771.8,666.2z"/>
		<path class="st6" d="M738.9,707.4c1.3,0,2.5-0.5,3.4-1.4c0.9-0.9,1.4-2.1,1.4-3.4s-0.5-2.5-1.4-3.4c-0.9-0.9-2.1-1.4-3.4-1.4
			s-2.5,0.5-3.4,1.4c-0.9,0.9-1.4,2.1-1.4,3.4s0.5,2.5,1.4,3.4C736.4,706.9,737.5,707.4,738.9,707.4z M738.9,731
			c-6.2-5.5-10.7-10.5-13.8-15.2c-3.1-4.7-4.6-9-4.6-12.8c0-5.9,1.9-10.5,5.5-13.9c3.7-3.5,8-5.2,12.8-5.2s9.1,1.7,12.8,5.2
			c3.7,3.4,5.5,8.1,5.5,13.9c0,3.8-1.5,8.1-4.6,12.8C749.6,720.5,745,725.6,738.9,731z"/>
	</g>
	<path id="MR" inkscape:connector-curvature="0" class="st0" d="M221.2,171.8l-44.1-33.5l-0.5,20.9l-38.9-0.7l-0.4,35.4l-11.2,1.3
		l-3.1,7.1l1.9,20L78,222.2l-2.7,4.6l6.1,6l3,6.5l-1.4,6.9l1.3,6.9l1,13.7l-1.8,13l-3.5,6.8l0.9,7.5l4.2-4.5l6,1.2l5.9-3l6.8-0.1
		l5.7,4l7.9,3.7l7.2,10.2l7.8,9.5l4.1-2.5l2.2-8.2l3.8-0.3l8.4,3.8l6.9-2.7l4.6,0.9l1.9-3.1l48.5-0.2l2.7-9.6l-2-1.8l-5.4-59.7
		L203,172L221.2,171.8L221.2,171.8z"/>
	<path id="MW" inkscape:connector-curvature="0" class="st0" d="M698.2,711.7l0.3-5.2l-2.7-4.1l0.4-6l-3.3-10.2l3.7-7.7l-0.2-16.7
		l-4.1-8.9l0.4-1.5l0,0l-2.3-3.8l-11.9-2.6l5.6,6.2l2.8,11.7l-2.2,3.8l-2.7,11.2l2,11.5l-4,4.8l-4.1,12.8l6.2,3.6l6.8,6.6l3.3-1.2
		l4.7,3.5l0.5,5.5l-2.9,6.5l0.5,9.7l7.5,8.6l4.1-9.6l5.4-3l-0.3-17.8l-4.6-10l-4.2-4.4h-0.7l0.1,1.9l2.3,0.5l2.2,7.4l-0.4,1.7
		l-4.1-5.3l-2.2,3.4L698.2,711.7L698.2,711.7z"/>
	<g id="NA_00000042708808512470474110000006593293649100926391_">
		<path id="NA" inkscape:connector-curvature="0" class="st7" d="M559.6,759.7l-22.4,5.7l-29.1-2l-8.2-6.6l-48.8,0.6l-1.9,1
			l-7.1-6.3l-7.8-0.4l-7.2,2.3l-5.9,2.7l0.6,10.6l9.5,13.5l2.5,8.7l6,16.6l5.9,11.4l4.6,5.7l1.3,7.6l-0.1,16.5l3.4,21.3l2.6,10.1
			l2.2,13.4l4.3,10.1l8.3,10.5l6-6.8l4.5,3.7l1.7,6l5.2,1l7.3,2.6l6.4-1l10.8-7.1l2.2-51.1l1.4-40.4l11.8-0.5l1.9-49.3l9-0.4
			l18.7-4.9l4.4,5.7l7.9-5.4h3.6l6.9-3.1v-1.2l-4.7-3.1l-7.8-0.8L559.6,759.7L559.6,759.7z"/>
		<path class="st2" d="M482.3,817.3c1.3,0,2.4-0.5,3.3-1.4c0.9-0.9,1.4-2,1.4-3.3c0-1.3-0.5-2.4-1.4-3.3c-0.9-0.9-2-1.4-3.3-1.4
			s-2.4,0.5-3.3,1.4c-0.9,0.9-1.4,2-1.4,3.3c0,1.3,0.5,2.4,1.4,3.3C479.9,816.8,481,817.3,482.3,817.3z M482.3,840.3
			c-6-5.3-10.5-10.3-13.4-14.8c-3-4.6-4.5-8.8-4.5-12.5c0-5.7,1.8-10.2,5.4-13.6c3.6-3.4,7.8-5.1,12.5-5.1c4.7,0,8.9,1.7,12.5,5.1
			c3.6,3.4,5.4,7.9,5.4,13.6c0,3.7-1.5,7.9-4.5,12.5C492.8,830.1,488.3,835,482.3,840.3z"/>
	</g>
	<path id="NE" inkscape:connector-curvature="0" class="st0" d="M441.9,198.6l-19-6L382.4,219l-34.5,27.1l-16.9,6.2l0.3,31.9
		l-6.6,9.2l-1,8.5l-10.7,2.2l-16.5,1.2l-4.5,4.9l-7.7,0.6l-1,6.7l1.6,6.3l6.9,9l0.4,6.7l14,3.1l-0.3,9.5l4.1-4l4.3-0.1l9.3,8
		l0.8-12.4l3.5-5.5l1.6-8l3.2-3l13-1.6l12.2,5.1l4.6,5.3l6.1,0.2l5.8-3.4l14.7,7.1l6.2-0.3l7.1-5.9l7.1,0.4l3.5-1.9l6.5,0.8l9.4,4
		l9.4-7.7l2.9,0.6l8.4,15.1l2.2-0.3l0.4-4.4l3.4-0.8l1.1-6.5l-7.8-0.3l-0.1-8.9l-5.1-5.2l4.9-18.2l15.2-13l0.2-18l4-28.1l2.5-6
		l-5.1-4.7l-0.3-4.4l-4.6-3.6l-3.4-21.5l-8.3,5.1L441.9,198.6L441.9,198.6z"/>
	<path id="NG" inkscape:connector-curvature="0" class="st0" d="M451.8,344.6l-2.2,0.3l-8.4-15.1l-2.9-0.6l-9.4,7.7l-9.4-4l-6.5-0.8
		l-3.5,1.9l-7.1-0.4l-7.1,5.9l-6.2,0.3l-14.7-7.1l-5.8,3.4l-6.1-0.2l-4.6-5.3l-12.2-5.1l-13,1.6l-3.2,3l-1.6,8l-3.5,5.5l-0.8,12.4
		l-0.5,4.6l2.8,8.2l-2.4,5.6l1.3,3.7l-5.9,8.5l-3.7,4.3l-2.3,8.7l0.3,8.8l-0.6,22.3h10.7l9.2-0.1l8.6,9.1l4.1,10l6.5,8.6l9.8,0.3
		l4.7-3.1l4.6,0.8l12.7-5l3.1-9.8l5.7-13.4l3.6-0.1l7.2-8.1l4.6-0.2l6.9,5.7l8.3-4.7l1.1-5.7l2.7-5.6l1.9-7l6.4-5.7l2.4-9.7l2.6-3.1
		l1.6-7.2l3.1-8.8l10.2-10.7l0.5-4.6l1.3-2.5L451.8,344.6L451.8,344.6z"/>
	<path id="SD" inkscape:connector-curvature="0" class="st0" d="M723.6,291.9l0.7-9.2l3.6-4.2l8.8-2.3l5.7-7.9l-6.9-5.1l-4.8-3.4
		l-5.3-16.5l-2.5-14.3l2.5-2.5l-4.7-13.6h-47.4h-46.4h-48.1l1,27.7H566l0.1,5.8l2.4,54.9l-10.5-0.9l-5.2,10.2l-3,8.5l2.6,3.2
		l-3.8,4.3l1.5,5.7l-3,5.8l-1.2,5l4.3-0.8l2.6,5.4l0.3,8l4.6,4.1l-0.1,3.4l1.5,5.9l7.2,8.6l0.1,5.7l-1.9,5.7l0.9,4.3l4.2,4l1,0.7
		l3.8-1.6l4.1-2.6l2.9-12.3l3.2-6.4l8.8-1.9l2.1,3.8l6.5,8l3.3,1.2l4.4-2.3l8.7,0.4l1.8,2.9h12.1l0.3-2.9l6.3-2.6l1.1-4l4.6-2.9
		L655,383l6.2-1.4l5.8-10l6.5-7.6l-1.3-8.3l-3-4l7.3-0.8l0.7-3l5.7,0.9l-1.2,10.2l1.7,10l6.5,5.5l1.5,4.7v6.9l1.7,0.3l-0.1-1.7
		l3.3-14.5l5.6-3.8l1.1-5.7l4.8-10.6l7.1-6.8l4.5-13.6l1.4-11.9l-1.5-5.6L723.6,291.9L723.6,291.9z"/>
	<path id="SS" inkscape:connector-curvature="0" class="st0" d="M691.4,379.2l-1.5-4.7l-6.5-5.5l-1.7-10l1.2-10.2l-5.7-0.9l-0.7,3
		l-7.3,0.8l3,4l1.3,8.3l-6.5,7.6l-5.8,10L655,383l-10.4-8.1l-4.6,2.9l-1.1,4l-6.3,2.6l-0.3,2.9h-12.1l-1.8-2.9l-8.7-0.4l-4.4,2.3
		l-3.3-1.2l-6.5-8l-2.1-3.8l-8.8,1.9l-3.2,6.4l-2.9,12.3l-4.1,2.6l-3.8,1.6l8.4,5.4l6.8,5.5l0.1,4.5l8.3,7.2l5.2,6l3.2,8.3l9.2,5.5
		l2,4.4l7.5,11.4l5.5,1.7l3.2-2.3l5.7,0.9l6.8-2.9l2.9,5.9l10.9,9.2l0,0l5-3.8l7.8,3.1l9.8-3.3l8.6,0.1l7.4-6.4l7.4-8.3l8.1-9.1
		l-7.4-15l-5.7-3.2l-2.2-5.6l-6.3-6.7l-7.5-1l4-7.9l6.4-0.3l1.8-4.2l-0.4-10.8l-1.7-0.3L691.4,379.2L691.4,379.2z"/>
	<path id="SN_00000134960748130727924740000017206434259096760760_" inkscape:connector-curvature="0" class="st0" d="M75.5,335.4
		l1.8,10.6l6.5-2.3l4,0.5l3.3-1.6l22.4,0.6l5.8,0.1l8.7,3.4l2.7-0.3l0.9-1.6l6.6,1.1l1.8-0.7l0.6-4.4l-1-5.3l-4.5-3.9l-2.3-7.9
		l-0.4-8.6l0,0l-7.8-9.5l-7.2-10.2l-7.9-3.7l-5.7-4l-6.8,0.1l-5.9,3l-6-1.2l-4.2,4.5l-3,7.1l-6.1,9.7l-5.4,2.6l6,4.9L75.5,335.4"/>
	<path id="SL" inkscape:connector-curvature="0" class="st0" d="M155.1,401l-3.3,0.8l0.1-5.1l-1.9-3.6l0.4-4l-2.6-5.8l-3.3-5h-9.7
		l-2.9,2.6l-3.3,0.3l-2.1,3L125,388l-6.5,6.1l1.4,10.3l2.1,5l6.3,7.4l8.7,5.6l3.3,1l2.9-4.4l0.7-4l5.5-7.5L155.1,401L155.1,401z"/>
	<path id="SZ" inkscape:connector-curvature="0" class="st0" d="M657.6,874.9l-5.8-2.6l-3.5,1l-1.4,4l-3.6,5.2l-0.2,4.8l6.6,7.5
		l7-1.5l2.8-6.1l-0.6-6.1L657.6,874.9L657.6,874.9z"/>
	<path id="TD" inkscape:connector-curvature="0" class="st0" d="M566.1,246.4l-48.7-26.5L469,193.4l-11.9,7.6l3.4,21.5l4.6,3.6
		l0.3,4.4l5.1,4.7l-2.5,6l-4,28.1l-0.2,18l-15.2,13l-4.9,18.2l5.1,5.2l0.1,8.9l7.8,0.3l-1.1,6.5l4.9,8.9l1,9.1l-0.4,9.2l6.8,12.6
		l-6.8-0.1l-3.4,0.9l-5.6-1.3l-2.5,6.5l7.2,8.1l5.3,2.3l1.8,5.7l3.9,9.6l-1.8,3.7l10-1l2.2-3.6l2.1,0.3l3,3.1l15.3-5.3l5.1-5.4
		l6.3-4.8l-1.2-4.9l3.4-1.2l11.8,0.8l11.3-6.4l8.6-15.1l6-5.6l7.7-2.3l0.1-3.4l-4.6-4.1l-0.3-8l-2.6-5.4l-4.3,0.8l1.2-5l3-5.8
		l-1.5-5.7l3.8-4.3l-2.6-3.2l3-8.5l5.2-10.2l10.5,0.9L566.1,246.4L566.1,246.4z"/>
	<path id="TG" inkscape:connector-curvature="0" class="st0" d="M290.7,365.2l-10.7-0.3l-0.9,4.3l5.1,7.1v10.1l1.2,10.9l3,5
		l-2.7,12.5l1,6.8l3.2,8.8l2.8,4.9l9.8-3l-3-9.5L300,391l-2.5-2.8l-0.4-6.8l-4.3-4.9l-3.7-4.1L290.7,365.2z"/>
	<path id="TN" inkscape:connector-curvature="0" class="st0" d="M413.1,59l-4.5-2.2l-3.2-6.6l-6-0.2l-2.4-7.6l7.3-7l1.1-12.1
		l-4.1-3.5l-0.2-6.5l5.5-7l-0.9-2.7l-9.5,5.2l0.1-7.1L388.2,0L376,5.7l-2.2,7.2l2.3,13.4l-2.4,11.6l-7,7.8l1.3,10.4l9.7,8.3l0.2,3.3
		l7.3,5.6l5.7,24.7l5.6-3.2l0.9-5.8l-1.5-5.7l7.9-5.3l3.4-4.4l5.6-4L413.1,59L413.1,59z"/>
	<path id="SO" inkscape:connector-curvature="0" class="st0" d="M816.2,372.8l-5.7-5.8l-2.5-5.7l-4.1-2.6l-4.2,7.4l-2.5,4.9l4.8,7.7
		l4.6,6.6l4.8,5l40.3,16.4l10.3-0.1l-33.5,41.5l-15.9,0.6l-10.7,9.8l-7.8,0.2l-3.3,4.4l-10.5,15.7l0.4,50.4l7.2,11.4l2.7-3.3
		l2.9-7.3l13.4-16.7l11.4-10.6l18.1-13.7l12.1-11.2l14.1-18.9l10.1-15.5l10-20.2l7-17.7l5.4-15.5l2.9-14.9l2.4-5l-0.4-7.3l0.8-8
		l-0.5-3.9l-4.6,0.1l-5.5,4.7l-6.4,1.4l-5.5,2.1l-3.9,0.2l0,0l-6.9,0.5l-4.2,2.6l-6,0.9l-10.5,4.3l-13.2,1.6l-11.3,3.5L816.2,372.8
		L816.2,372.8z"/>
	<g id="TZ_00000044155160665320725080000014866356462944475287_">
		<path id="TZ" inkscape:connector-curvature="0" class="st8" d="M655.8,531.3l-4.3,1.7l4.8,7.8l-0.8,8.1l-3.5,1.8l0,0l0.6,5.4
			l2.6,3.2l0.1,4.5l-3,2.9l-4.9,7.2l-4.5,5l-1.2,0.2L641,585l2.3,2l-0.5,5.9l2.3,5.5l-2.9,5.3l9.7,9.4l0.8,8.5l5.9,14.2l0,0l0.6,0.4
			l4.8,2.3l7.7,2.4l6.8,4.1l11.9,2.6l2.3,3.8l0,0l0.8-2.7l6.2,7.4l0.6,14.5l3.9,5.3l-0.1,0.2l4.7-0.5l14.4,3.9l3.3-1.8l8.4-0.3
			l4.5-4.2l7.3,0.2l13.4-5.3l10-8.1l0,0l-4.4-3l-4.7-13.6l-4-8.7l1-6.6l-0.6-4.2l3.5-8.4l-0.3-3.6l-7.7-5l-0.6-7.8l5.9-17.1
			l-17.3-13.8l-0.7-8L696.1,532l0,0l-6,6.1l-4.1,6.3l4.8,4.7l-7,3.4l-1.5-1.6l-7.1,0.9l-5.5,3.1l-3.3-5.4l2.3-9.7l0.5-8.3l0,0l0,0
			L655.8,531.3L655.8,531.3z"/>
		<path class="st2" d="M709.1,601.6c1.3,0,2.4-0.5,3.3-1.4c0.9-0.9,1.4-2,1.4-3.3c0-1.3-0.5-2.4-1.4-3.3c-0.9-0.9-2-1.4-3.3-1.4
			s-2.4,0.5-3.3,1.4c-0.9,0.9-1.4,2-1.4,3.3c0,1.3,0.5,2.4,1.4,3.3C706.8,601.1,707.9,601.6,709.1,601.6z M709.1,624.7
			c-6-5.3-10.5-10.3-13.4-14.8c-3-4.6-4.5-8.8-4.5-12.5c0-5.7,1.8-10.2,5.4-13.6c3.6-3.4,7.8-5.1,12.5-5.1s8.9,1.7,12.5,5.1
			c3.6,3.4,5.4,7.9,5.4,13.6c0,3.7-1.5,7.9-4.5,12.5C719.6,614.4,715.2,619.4,709.1,624.7z"/>
	</g>
	<g id="UG_00000140728704849412919560000003478865169426736015_">
		<path id="UG" inkscape:connector-curvature="0" class="st9" d="M694.9,458.5l-7.4,6.4l-8.6-0.1l-9.8,3.3l-7.8-3.1l-5,3.8l0,0
			l-0.6,16.1l4.9,1.9l-3.9,4.9l-4.7,3.7l-4.6,7.2l-2.6,6.4l-0.6,11.1l-2.9,5.3l-0.1,10.5l2.9,1.4l7.4-4.3l4.3-1.7l13.4,0.2l0,0
			l-0.7-5.3l5.7-8.1l7.7-2l5.2-3.3l6.3,2.7l0.6,1v-0.7l3.5-5.6l5.9-9.2l4.4-10.1l-5.5-15.8l-1.5-7L694.9,458.5L694.9,458.5z"/>
		<path class="st2" d="M680.3,486.6c1.3,0,2.4-0.5,3.3-1.4c0.9-0.9,1.4-2,1.4-3.3s-0.5-2.4-1.4-3.3c-0.9-0.9-2-1.4-3.3-1.4
			s-2.4,0.5-3.3,1.4c-0.9,0.9-1.4,2-1.4,3.3s0.5,2.4,1.4,3.3C677.9,486.1,679,486.6,680.3,486.6z M680.3,509.7
			c-6-5.3-10.5-10.3-13.4-14.8c-3-4.6-4.5-8.8-4.5-12.5c0-5.7,1.8-10.2,5.4-13.6c3.6-3.4,7.8-5.1,12.5-5.1c4.7,0,8.9,1.7,12.5,5.1
			c3.6,3.4,5.4,7.9,5.4,13.6c0,3.7-1.5,7.9-4.5,12.5C690.8,499.4,686.3,504.4,680.3,509.7z"/>
	</g>
	<g id="ZA_00000152980573525730601550000005215336711986304935_">
		<path id="ZA" inkscape:connector-curvature="0" class="st10" d="M505.9,999l5.3-0.3l7.5-5.3l10-2.2l12.3-5.5l4.7,0.7l7.2-1.7
			l12.3,2.7l5.9-2.6l6.9,2l1.8-3.8l6-0.8l12.6-5.3l9.3-6.3l8.9-8.3l14.4-14.2l7.5-9.9l3.9-7.1l5.5-7l2.5-2l8.6-7l3.5-6.2l2.3-11.5
			l3.7-10.1l-9-0.1l-2.8,6.1l-7,1.5l-6.6-7.5l0.2-4.8l3.6-5.2l1.4-4l3.5-1l5.8,2.6l-0.7-5l3-15.4l-2.5-9.9l-4.7-19.5l-6.3-1.3
			l-4.1,1.6l-5.7-2.3l-4.9-0.2l-17.3,10.2l-11.2,10.3l-4.4,9.3l-3.9,5.2l-6.5,1.1l-2.4,6.6l-1.4,4.3l-7.8,3.2l-9.6-0.6l-5.5-3.9
			l-4.9-1.7l-6,3.2l-3.2,6.6l-5.8,4.2l-6.2,6.2l-8.5,1.4l-2.5-4.9l1.5-8.4l-6.5-13.2l-3.2-2l-2.2,51.1l-10.8,7.1l-6.4,1l-7.3-2.6
			l-5.2-1l-1.7-6l-4.5-3.7l-6,6.8l7.7,17.9v0.1l5.4,11.7l6.9,12.8l-0.2,10.6l-3.9,2.5l3.2,9.3l-0.5,8.1l1.3,3.8l0.7-1.9l4.6,6.2
			l3.8,0.2L505.9,999L505.9,999z M608.9,939.9l-4.3,1.3l-8-10.6l6.9-8.7l6.8-5.4l5.7-2.8l4.8,4.2l3.8,4.2l-4.1,6.7l-2.4,4.5
			l-6.7,2.2L608.9,939.9L608.9,939.9z"/>
		<path class="st2" d="M557.2,926.5c1.3,0,2.4-0.5,3.3-1.4c0.9-0.9,1.4-2,1.4-3.3c0-1.3-0.5-2.4-1.4-3.3c-0.9-0.9-2-1.4-3.3-1.4
			s-2.4,0.5-3.3,1.4c-0.9,0.9-1.4,2-1.4,3.3c0,1.3,0.5,2.4,1.4,3.3C554.8,926,555.9,926.5,557.2,926.5z M557.2,949.6
			c-6-5.3-10.5-10.3-13.4-14.8c-3-4.6-4.5-8.8-4.5-12.5c0-5.7,1.8-10.2,5.4-13.6c3.6-3.4,7.8-5.1,12.5-5.1s8.9,1.7,12.5,5.1
			c3.6,3.4,5.4,7.9,5.4,13.6c0,3.7-1.5,7.9-4.5,12.5C567.7,939.3,563.2,944.2,557.2,949.6z"/>
	</g>
	<g id="ZM_00000069361239130603163870000008240444296089909150_">
		<path id="ZM" inkscape:connector-curvature="0" class="st11" d="M654.9,636l-4.1-1.1l0.7-3l-2.1-0.6l-16.4,2.3l-3.3,1.7l-3.6,8.8
			l2.6,6.1l-2.5,16.4l-1.9,13.9l3.2,2.4l8.4,5.4l3.4-2.5l0.6,14.9l-9.3-0.1l-4.8-7.6l-4.3-5.9l-9.2-1.9l-2.6-7.3l-7.5,4.4l-9.7-2
			l-3.9-6.2l-7.7-1.3l-5.7,0.3l-0.6-4.3l-4.2-0.3l1.2,4.3l-1.5,6.7l2,6.5l-2,5.2l1,4.7l-25.3-0.1l-1.6,44l7.8,11.3l7.6,8.6l9.9-3.1
			l7.8,0.8l4.7,3.1v1.2l2.2,1l13.4,1.5l3.8,1.6l4.1-0.3l7-9l10.9-11.4l4.4-1l1.7-4.8l7-5.5l9.3-1.9L645,722l37.1-11.4l-6.2-3.6
			l4.1-12.8l4-4.8l-2-11.5l2.7-11.2l2.2-3.8l-2.8-11.7l-5.6-6.2l-6.8-4.1l-7.7-2.4l-4.8-2.3l-0.6-0.4l0,0l0.9,2.3l-2,0.8L654.9,636
			L654.9,636z"/>
		<path class="st2" d="M602.3,715.3c1.3,0,2.4-0.5,3.3-1.4c0.9-0.9,1.4-2,1.4-3.3c0-1.3-0.5-2.4-1.4-3.3c-0.9-0.9-2-1.4-3.3-1.4
			s-2.4,0.5-3.3,1.4c-0.9,0.9-1.4,2-1.4,3.3c0,1.3,0.5,2.4,1.4,3.3C599.9,714.8,601,715.3,602.3,715.3z M602.3,738.3
			c-6-5.3-10.5-10.3-13.4-14.8c-3-4.6-4.5-8.8-4.5-12.5c0-5.7,1.8-10.2,5.4-13.6c3.6-3.4,7.8-5.1,12.5-5.1c4.7,0,8.9,1.7,12.5,5.1
			c3.6,3.4,5.4,7.9,5.4,13.6c0,3.7-1.5,7.9-4.5,12.5C612.8,728.1,608.3,733,602.3,738.3z"/>
	</g>
	<g id="ZW_00000081622574465707328130000007419402522992783521_">
		<path id="ZW" inkscape:connector-curvature="0" class="st12" d="M652.7,825.1l13.4-15.7l3.6-9.9l1.9-1.3l1.7-8.1l-1.7-4.1l1-10.4
			l2.8-9.6l0.8-17.5l-6.1-4.4l-5.7-1l-2.5-3.4l-5.5-3l-10,0.3l-0.6-5.1l-9.3,1.9l-7,5.5l-1.7,4.8l-4.4,1l-10.9,11.4l-7,9l-4.1,0.3
			l-3.8-1.6l-13.4-1.5l4.2,11.1l2.3,2.4l3.5,8l13,15.2l5.1,1.5l-0.2,4.9l3.1,8.8l9.2,2.1l7.3,6.2l4.9,0.2l5.7,2.3l4.1-1.6
			L652.7,825.1L652.7,825.1z"/>
		<path class="st2" d="M639.3,780.3c1.3,0,2.4-0.5,3.3-1.4c0.9-0.9,1.4-2,1.4-3.3c0-1.3-0.5-2.4-1.4-3.3c-0.9-0.9-2-1.4-3.3-1.4
			s-2.4,0.5-3.3,1.4c-0.9,0.9-1.4,2-1.4,3.3c0,1.3,0.5,2.4,1.4,3.3C636.9,779.8,638,780.3,639.3,780.3z M639.3,803.3
			c-6-5.3-10.5-10.3-13.4-14.8c-3-4.6-4.5-8.8-4.5-12.5c0-5.7,1.8-10.2,5.4-13.6c3.6-3.4,7.8-5.1,12.5-5.1c4.7,0,8.9,1.7,12.5,5.1
			c3.6,3.4,5.4,7.9,5.4,13.6c0,3.7-1.5,7.9-4.5,12.5C649.8,793.1,645.3,798,639.3,803.3z"/>
	</g>
	<g id="RW_00000178889537296682207320000011828681567664253831_">
		<path id="RW" inkscape:connector-curvature="0" class="st13" d="M651.5,533l-7.4,4.3l-2.9-1.4l-3.5,3.8l-0.5,8.3l-1.7,1l-1.2,7.6
			l7.4,1.1l3.8-7.9l6.5,0.9l0,0l3.5-1.8l0.8-8.1L651.5,533L651.5,533z"/>
		<path class="st2" d="M646,523.3c1.3,0,2.4-0.5,3.3-1.4c0.9-0.9,1.4-2,1.4-3.3c0-1.3-0.5-2.4-1.4-3.3c-0.9-0.9-2-1.4-3.3-1.4
			s-2.4,0.5-3.3,1.4c-0.9,0.9-1.4,2-1.4,3.3c0,1.3,0.5,2.4,1.4,3.3C643.6,522.8,644.7,523.3,646,523.3z M646,546.3
			c-6-5.3-10.5-10.3-13.4-14.8c-3-4.6-4.5-8.8-4.5-12.5c0-5.7,1.8-10.2,5.4-13.6c3.6-3.4,7.8-5.1,12.5-5.1c4.7,0,8.9,1.7,12.5,5.1
			c3.6,3.4,5.4,7.9,5.4,13.6c0,3.7-1.5,7.9-4.5,12.5C656.4,536.1,652,541,646,546.3z"/>
	</g>
</g>
</svg>
