<svg width="17" height="18" viewBox="0 0 17 18" fill="none" xmlns="http://www.w3.org/2000/svg">
<mask id="mask0_55_53" style="mask-type:alpha" maskUnits="userSpaceOnUse" x="0" y="0" width="17" height="18">
<rect x="0.0968018" y="0.341309" width="16.4516" height="16.6986" fill="#D9D9D9"/>
</mask>
<g mask="url(#mask0_55_53)">
<path d="M8.32261 8.51661C8.65569 8.51661 8.93889 8.3982 9.1722 8.16137C9.40553 7.92455 9.52219 7.6371 9.52219 7.29903C9.52219 6.96095 9.40553 6.6735 9.1722 6.43669C8.93889 6.19986 8.65569 6.08144 8.32261 6.08144C7.98954 6.08144 7.70634 6.19986 7.47303 6.43669C7.2397 6.6735 7.12304 6.96095 7.12304 7.29903C7.12304 7.6371 7.2397 7.92455 7.47303 8.16137C7.70634 8.3982 7.98954 8.51661 8.32261 8.51661ZM8.32261 15.5145C6.53597 13.9392 5.20389 12.477 4.32638 11.1278C3.44888 9.77861 3.01013 8.54874 3.01013 7.43818C3.01013 5.75228 3.54489 4.4089 4.61442 3.40805C5.68395 2.40722 6.92001 1.9068 8.32261 1.9068C9.72522 1.9068 10.9613 2.40722 12.0308 3.40805C13.1003 4.4089 13.6351 5.75228 13.6351 7.43818C13.6351 8.54874 13.1963 9.77861 12.3188 11.1278C11.4413 12.477 10.1093 13.9392 8.32261 15.5145Z" fill="white"/>
</g>
</svg>
