<svg width="125" height="51" viewBox="0 0 125 51" fill="none" xmlns="http://www.w3.org/2000/svg">
<path d="M0 26.6762V22.6758H6.93021C7.13524 22.6758 7.23794 22.5956 7.23794 22.4351V19.7461C7.23794 19.6748 7.20894 19.6146 7.15111 19.5655C7.09292 19.5166 7.01941 19.492 6.9304 19.492H2.16761C1.52533 19.492 1.00363 19.2936 0.602326 18.8966C0.201019 18.4999 0.00036532 17.9802 0.00036532 17.3379V10.3409C0.00036532 9.69866 0.201019 9.17934 0.602326 8.78241C1.00363 8.38566 1.52533 8.18701 2.16761 8.18701H11.72V12.1605H5.0437C4.96344 12.1605 4.8965 12.1895 4.84305 12.2475C4.7896 12.3057 4.76279 12.3747 4.76279 12.4549V15.1709C4.76279 15.2243 4.7896 15.2779 4.84305 15.3314C4.8965 15.385 4.96344 15.4116 5.0437 15.4116H9.80649C10.4486 15.4116 10.9705 15.6123 11.3718 16.0138C11.7731 16.4151 11.9737 16.9368 11.9737 17.5791V24.5091C11.9737 25.1514 11.7731 25.6731 11.3718 26.0744C10.9705 26.4757 10.4486 26.6765 9.80649 26.6765H0V26.6762Z" fill="white"/>
<path d="M52.1688 26.6761V8.18677H63.8886V12.1603H56.905V16.3477H62.9253V20.2946H56.905V26.6761H52.1688Z" fill="white"/>
<path d="M77.9016 26.6761V8.18677H89.6214V12.1603H82.6378V16.3477H88.6581V20.2946H82.6378V26.6761H77.9016Z" fill="white"/>
<path d="M31.7607 13.0874L41.5581 26.676H47.141L31.7607 5.34399L16.3802 26.676H21.9633L31.7607 13.0874Z" fill="white"/>
<path d="M108.831 13.0874L118.629 26.676H124.212L108.831 5.34399L93.4512 26.676H99.0343L108.831 13.0874Z" fill="white"/>
<path d="M96.9176 0H73.4445L70.884 2.26483L68.441 0H42.2734L33.4667 13.1454L36.9571 15.4839L44.5158 4.2015H66.7929L70.8176 7.93239L75.0361 4.2015H94.7853L103.641 16.3073L107.032 13.8269L96.9176 0Z" fill="white"/>
<path d="M124.212 34.0713H0V38.0716H124.212V34.0713Z" fill="white"/>
<path d="M11.8483 45.5071H14.8182C14.9681 45.5071 15.0969 45.5598 15.2047 45.6652C15.3125 45.7707 15.3663 45.8996 15.3663 46.0518V48.5508C15.3663 48.6962 15.3118 48.8239 15.2029 48.9339C15.094 49.0441 14.9656 49.0991 14.818 49.0991H13.0993V50.3644H11.8481L11.8483 45.5071ZM13.0995 48.0692H14.0484C14.0648 48.0692 14.08 48.0618 14.0942 48.0464C14.1082 48.0313 14.1152 48.0165 14.1152 48.0025V46.6213C14.1152 46.6025 14.1082 46.5861 14.0942 46.572C14.0801 46.558 14.0648 46.551 14.0484 46.551H13.0995V48.0692Z" fill="white"/>
<path d="M19.0803 45.5068V50.3641H17.8361V45.5068H19.0803Z" fill="white"/>
<path d="M22.2809 45.5068H24.7797C24.9485 45.5068 25.0854 45.559 25.1909 45.6632C25.2963 45.7675 25.349 45.904 25.349 46.0727V49.7946C25.349 49.9632 25.2963 50.1003 25.1909 50.2058C25.0854 50.3112 24.9485 50.3639 24.7797 50.3639H22.2809C22.1121 50.3639 21.9751 50.3112 21.8697 50.2058C21.7643 50.1003 21.7115 49.9634 21.7115 49.7946V46.0727C21.7115 45.904 21.7643 45.7675 21.8697 45.6632C21.9751 45.559 22.1121 45.5068 22.2809 45.5068ZM24.0944 49.2499V46.6351C24.0944 46.6141 24.0867 46.5958 24.0716 46.5807C24.0563 46.5656 24.0382 46.5579 24.0171 46.5579H23.0295C23.0154 46.5579 23.0014 46.5656 22.9873 46.5807C22.9733 46.5958 22.9662 46.6141 22.9662 46.6351V49.2499C22.9662 49.2664 22.9731 49.281 22.9873 49.2939C23.0014 49.3069 23.0154 49.3132 23.0295 49.3132H24.0171C24.0382 49.3132 24.0563 49.3067 24.0716 49.2939C24.0867 49.281 24.0944 49.2664 24.0944 49.2499Z" fill="white"/>
<path d="M30.5494 50.3641L29.1295 47.6931V50.3641H27.9803V45.5068H29.1295L30.5846 48.1815V45.5068H31.7375V50.3641H30.5494Z" fill="white"/>
<path d="M34.4144 50.3641V45.5068H37.5882V46.5508H35.6587V47.3977H37.3281V48.4346H35.6587V49.3132H37.5882V50.3641H34.4144Z" fill="white"/>
<path d="M40.0927 50.3641V45.5068H43.2664V46.5508H41.3369V47.3977H43.0063V48.4346H41.3369V49.3132H43.2664V50.3641H40.0927Z" fill="white"/>
<path d="M45.7712 45.507H48.8219C48.9718 45.507 49.1006 45.5597 49.2084 45.6652C49.3162 45.7706 49.3701 45.8996 49.3701 46.0517V48.2764C49.3701 48.4242 49.3157 48.5522 49.2066 48.6613C49.0975 48.7704 48.9693 48.8247 48.8217 48.8247H48.7865L49.3841 50.3641H48.161L47.5565 48.8247H47.0224V50.3641H45.7712V45.5068V45.507ZM48.1225 47.781V46.6212C48.1225 46.6048 48.1156 46.5889 48.1014 46.5738C48.0873 46.5586 48.0733 46.551 48.0592 46.551H47.0224V47.8443H48.0592C48.0733 47.8443 48.0873 47.8373 48.1014 47.8233C48.1154 47.8092 48.1225 47.7952 48.1225 47.7812V47.781Z" fill="white"/>
<path d="M51.9523 50.3641V45.5068H55.1261V46.5508H53.1965V47.3977H54.8659V48.4346H53.1965V49.3132H55.1261V50.3641H51.9523Z" fill="white"/>
<path d="M57.6305 45.5068H60.2419C60.5113 45.5068 60.7434 45.603 60.9378 45.7951C61.1323 45.9873 61.2295 46.2192 61.2295 46.491V49.3694C61.2295 49.646 61.1323 49.8807 60.9378 50.0743C60.7434 50.2676 60.5113 50.3641 60.2419 50.3641H57.6305V45.5068ZM59.9818 48.9617V46.9021C59.9818 46.799 59.949 46.7146 59.8833 46.6489C59.8176 46.5834 59.7333 46.5506 59.6303 46.5506H58.8817V49.3131H59.6303C59.7333 49.3131 59.8178 49.2802 59.8833 49.2146C59.9488 49.1489 59.9818 49.0646 59.9818 48.9615V48.9617Z" fill="white"/>
<path d="M66.6922 48.0481H67.947V49.2502C67.947 49.2666 67.9539 49.2812 67.968 49.2941C67.982 49.3071 67.9961 49.3135 68.0101 49.3135H68.6497C68.6708 49.3135 68.6896 49.3069 68.7059 49.2941C68.7221 49.2814 68.7305 49.2666 68.7305 49.2502V45.5071H69.9816V49.8091C69.9816 49.9661 69.9289 50.0979 69.8235 50.2046C69.7181 50.3113 69.5891 50.3645 69.437 50.3645H67.2473C67.0973 50.3645 66.9673 50.3107 66.8573 50.2029C66.7471 50.0953 66.692 49.964 66.692 49.8093V48.0485L66.6922 48.0481Z" fill="white"/>
<path d="M73.1827 45.5068H75.6818C75.8503 45.5068 75.9875 45.559 76.0929 45.6632C76.1984 45.7675 76.2511 45.904 76.2511 46.0727V49.7946C76.2511 49.9632 76.1984 50.1003 76.0929 50.2058C75.9875 50.3112 75.8505 50.3639 75.6818 50.3639H73.1827C73.014 50.3639 72.877 50.3112 72.7716 50.2058C72.6661 50.1003 72.6134 49.9634 72.6134 49.7946V46.0727C72.6134 45.904 72.6661 45.7675 72.7716 45.6632C72.877 45.559 73.014 45.5068 73.1827 45.5068ZM74.9963 49.2499V46.6351C74.9963 46.6141 74.9886 46.5958 74.9735 46.5807C74.9583 46.5656 74.9401 46.5579 74.9191 46.5579H73.9315C73.9175 46.5579 73.9034 46.5656 73.8894 46.5807C73.8753 46.5958 73.8684 46.6141 73.8684 46.6351V49.2499C73.8684 49.2664 73.8753 49.281 73.8894 49.2939C73.9034 49.3069 73.9175 49.3132 73.9315 49.3132H74.9191C74.9401 49.3132 74.9583 49.3067 74.9735 49.2939C74.9886 49.2811 74.9963 49.2664 74.9963 49.2499Z" fill="white"/>
<path d="M78.8821 45.5068H80.1333V49.2499C80.1333 49.2664 80.1402 49.281 80.1545 49.2939C80.1685 49.3069 80.1826 49.3132 80.1966 49.3132H81.1103C81.1315 49.3132 81.1503 49.3067 81.1665 49.2939C81.1827 49.2811 81.1911 49.2664 81.1911 49.2499V45.5068H82.4423V49.8089C82.4423 49.9659 82.3896 50.0976 82.2841 50.2043C82.1787 50.311 82.0497 50.3643 81.8976 50.3643H79.4338C79.2838 50.3643 79.1543 50.311 79.0454 50.2043C78.9365 50.0976 78.882 49.9659 78.882 49.8089L78.8821 45.5068Z" fill="white"/>
<path d="M85.1191 45.507H88.1698C88.3197 45.507 88.4487 45.5597 88.5565 45.6652C88.6641 45.7706 88.7181 45.8996 88.7181 46.0517V48.2764C88.7181 48.4242 88.6638 48.5522 88.5547 48.6613C88.4456 48.7704 88.3176 48.8247 88.1698 48.8247H88.1348L88.7322 50.3641H87.5091L86.9046 48.8247H86.3703V50.3641H85.1191V45.5068V45.507ZM87.4704 47.781V46.6212C87.4704 46.6048 87.4633 46.5889 87.4493 46.5738C87.4352 46.5586 87.4212 46.551 87.4071 46.551H86.3703V47.8443H87.4071C87.4212 47.8443 87.4352 47.8373 87.4493 47.8233C87.4633 47.8092 87.4704 47.7952 87.4704 47.7812V47.781Z" fill="white"/>
<path d="M93.8696 50.3641L92.4497 47.6931V50.3641H91.3003V45.5068H92.4497L93.9048 48.1815V45.5068H95.0576V50.3641H93.8696Z" fill="white"/>
<path d="M97.7343 50.3641V45.5068H100.908V46.5508H98.9785V47.3977H100.648V48.4346H98.9785V49.3132H100.908V50.3641H97.7343Z" fill="white"/>
<path d="M105.659 50.3641H104.404V48.9371H103.757C103.61 48.9371 103.481 48.8809 103.372 48.7686C103.263 48.656 103.209 48.5214 103.209 48.3643V45.5068H104.464V47.7458C104.464 47.7622 104.472 47.7781 104.488 47.7932C104.505 47.8083 104.522 47.816 104.541 47.816H105.543C105.575 47.816 105.592 47.7926 105.592 47.7458V45.5068H106.847V48.3643C106.847 48.5214 106.792 48.656 106.683 48.7686C106.574 48.8809 106.446 48.9371 106.298 48.9371H105.659V50.3641Z" fill="white"/>
<path d="M109.218 50.3641V49.3132H111.038C111.092 49.3132 111.119 49.2921 111.119 49.2499V48.5435C111.119 48.5247 111.111 48.509 111.096 48.496C111.081 48.4833 111.062 48.4767 111.038 48.4767H109.787C109.618 48.4767 109.481 48.4245 109.376 48.3204C109.27 48.216 109.218 48.0796 109.218 47.9109V46.0727C109.218 45.904 109.27 45.7675 109.376 45.6632C109.481 45.559 109.618 45.5068 109.787 45.5068H112.296V46.5508H110.543C110.522 46.5508 110.504 46.5584 110.49 46.5736C110.476 46.5887 110.469 46.607 110.469 46.6279V47.3414C110.469 47.3554 110.476 47.3694 110.49 47.3835C110.504 47.3975 110.522 47.4045 110.543 47.4045H111.794C111.962 47.4045 112.1 47.4572 112.205 47.5626C112.31 47.6681 112.363 47.8052 112.363 47.9738V49.7944C112.363 49.963 112.31 50.1002 112.205 50.2056C112.1 50.311 111.963 50.3637 111.794 50.3637H109.218V50.3641Z" fill="white"/>
<path d="M118.976 47.4036H115.748V48.4676H118.976V47.4036Z" fill="white"/>
<path d="M8.46393 47.4036H5.2356V48.4676H8.46393V47.4036Z" fill="white"/>
</svg>
