<svg width="305" height="49" viewBox="0 0 305 49" fill="none" xmlns="http://www.w3.org/2000/svg">
<g filter="url(#filter0_d_18_2)">
<path d="M18.36 2.8H12.96C7.96 2.8 5.46 5.1 5.46 9.7H4.26V5.2C4.26 2 5.96 0.399998 9.36 0.399998H37.26V2.8H23.76V40H18.36V2.8ZM44.3405 7.6C44.3405 5.56 44.0605 4.06 43.5005 3.1C42.9405 2.1 41.8205 1.6 40.1405 1.6H38.9405V0.399998H44.3405C45.8205 0.399998 46.9205 0.599998 47.6405 0.999998C48.4005 1.36 48.9405 2.04 49.2605 3.04C49.5805 4.04 49.7405 5.56 49.7405 7.6V18.4H67.7405V0.399998H73.1405V32.8C73.1405 34.84 73.4205 36.36 73.9805 37.36C74.5405 38.32 75.6605 38.8 77.3405 38.8H78.5405V40H73.1405C71.6605 40 70.5405 39.82 69.7805 39.46C69.0605 39.06 68.5405 38.36 68.2205 37.36C67.9005 36.36 67.7405 34.84 67.7405 32.8V20.8H49.7405V40H44.3405V7.6ZM85.942 7.6C85.942 5.56 85.662 4.06 85.102 3.1C84.542 2.1 83.422 1.6 81.742 1.6H80.542V0.399998H106.102C109.502 0.399998 111.202 2 111.202 5.2V9.7H110.002C110.002 5.1 107.502 2.8 102.502 2.8H91.342V18.4H107.542V20.8H91.342V37.6H101.842C104.602 37.6 106.762 37.1 108.322 36.1C109.882 35.1 111.122 33.4 112.042 31L113.242 31.3L111.142 37C110.422 39 108.922 40 106.642 40H85.942V7.6ZM147.733 40.6C145.613 40.6 143.753 39.98 142.153 38.74C140.593 37.46 138.853 35.18 136.933 31.9L130.933 21.7H126.733V40H121.333V7.6C121.333 5.56 121.053 4.06 120.493 3.1C119.933 2.1 118.813 1.6 117.133 1.6H115.933V0.399998H131.533C135.333 0.399998 138.773 1.16 141.853 2.68C144.973 4.16 146.533 7 146.533 11.2C146.533 16.52 143.333 19.92 136.933 21.4L143.233 31.9C144.713 34.38 146.033 36.12 147.193 37.12C148.393 38.08 149.773 38.64 151.333 38.8V40C150.973 40.16 150.453 40.3 149.773 40.42C149.133 40.54 148.453 40.6 147.733 40.6ZM131.233 19.6C132.473 19.6 133.813 19.3 135.253 18.7C136.733 18.1 137.973 17.16 138.973 15.88C140.013 14.6 140.533 13.04 140.533 11.2C140.533 9.24 140.013 7.62 138.973 6.34C137.973 5.02 136.733 4.06 135.253 3.46C133.813 2.82 132.473 2.5 131.233 2.5C129.833 2.5 128.333 2.7 126.733 3.1V19C128.333 19.4 129.833 19.6 131.233 19.6ZM187.976 40.3C186.056 40.3 184.156 39.78 182.276 38.74C180.396 37.66 178.896 35.58 177.776 32.5L176.276 28.6H159.476L154.676 40H151.976L168.776 0.399998H170.576L183.776 32.5C184.776 34.82 185.716 36.42 186.596 37.3C187.476 38.14 188.736 38.64 190.376 38.8V40C189.656 40.2 188.856 40.3 187.976 40.3ZM160.376 26.2H175.076L167.876 8.8L160.376 26.2ZM195.102 7.6C195.102 5.56 194.822 4.06 194.262 3.1C193.702 2.1 192.582 1.6 190.902 1.6H189.702V0.399998H205.302C209.142 0.399998 212.602 1.22 215.682 2.86C218.762 4.5 220.302 7.68 220.302 12.4C220.302 15.52 219.502 17.92 217.902 19.6C216.302 21.28 214.502 22.4 212.502 22.96C210.542 23.52 208.742 23.8 207.102 23.8H200.502V40H195.102V7.6ZM205.002 21.7C206.282 21.7 207.642 21.38 209.082 20.74C210.522 20.06 211.742 19 212.742 17.56C213.782 16.12 214.302 14.3 214.302 12.1C214.302 9.9 213.782 8.08 212.742 6.64C211.742 5.2 210.522 4.16 209.082 3.52C207.642 2.84 206.282 2.5 205.002 2.5C203.602 2.5 202.102 2.7 200.502 3.1V21.1C202.102 21.5 203.602 21.7 205.002 21.7ZM228.208 7.6C228.208 5.56 227.928 4.06 227.368 3.1C226.808 2.1 225.688 1.6 224.008 1.6H222.808V0.399998H228.208C229.688 0.399998 230.788 0.599998 231.508 0.999998C232.268 1.36 232.808 2.04 233.128 3.04C233.448 4.04 233.608 5.56 233.608 7.6V18.4H251.608V0.399998H257.008V32.8C257.008 34.84 257.288 36.36 257.848 37.36C258.408 38.32 259.528 38.8 261.208 38.8H262.408V40H257.008C255.528 40 254.408 39.82 253.648 39.46C252.928 39.06 252.408 38.36 252.088 37.36C251.768 36.36 251.608 34.84 251.608 32.8V20.8H233.608V40H228.208V7.6ZM280.849 23.62L270.649 8.2C269.609 6.72 268.729 5.56 268.009 4.72C267.289 3.88 266.429 3.18 265.429 2.62C264.469 2.02 263.309 1.68 261.949 1.6V0.399998H267.349C269.349 0.399998 271.029 0.999998 272.389 2.2C273.749 3.36 275.069 4.96 276.349 7L285.049 20.5L297.589 0.399998H300.289L286.249 23.2V40H280.849V23.62Z" fill="white"/>
</g>
<defs>
<filter id="filter0_d_18_2" x="0.26001" y="0.399994" width="304.029" height="48.2" filterUnits="userSpaceOnUse" color-interpolation-filters="sRGB">
<feFlood flood-opacity="0" result="BackgroundImageFix"/>
<feColorMatrix in="SourceAlpha" type="matrix" values="0 0 0 0 0 0 0 0 0 0 0 0 0 0 0 0 0 0 127 0" result="hardAlpha"/>
<feOffset dy="4"/>
<feGaussianBlur stdDeviation="2"/>
<feComposite in2="hardAlpha" operator="out"/>
<feColorMatrix type="matrix" values="0 0 0 0 0 0 0 0 0 0 0 0 0 0 0 0 0 0 0.25 0"/>
<feBlend mode="normal" in2="BackgroundImageFix" result="effect1_dropShadow_18_2"/>
<feBlend mode="normal" in="SourceGraphic" in2="effect1_dropShadow_18_2" result="shape"/>
</filter>
</defs>
</svg>
