<svg width="129" height="129" viewBox="0 0 129 129" fill="none" xmlns="http://www.w3.org/2000/svg">
<g clip-path="url(#clip0_55_355)">
<path d="M25.1889 12.5428L26.4251 11.7098L29.8305 14.3003L29.6142 14.3403L28.9398 11.1893L30.402 12.3082L31.0896 16.6557L25.1889 12.5428ZM27.8723 10.7348L28.9195 10.0293L32.4259 12.3931L32.2172 12.4914L31.0284 8.6084L32.1629 7.84406L33.836 14.7842L27.8723 10.7348Z" fill="white"/>
<path d="M34.4406 14.0759L33.816 6.79012L33.8778 6.7568L39.626 11.2769L38.3296 11.9767L34.4529 8.70833L34.9632 7.71541L35.544 13.4803L34.4406 14.0759ZM35.0843 11.0779L36.7896 10.1574L37.6913 10.8863L35.2452 12.2067L35.0843 11.0779Z" fill="white"/>
<path d="M36.3081 5.78369L40.2795 4.01052L40.78 5.13149L39.3468 5.7714L41.4774 10.5435L40.3164 11.0619L38.1858 6.28977L36.8086 6.90466L36.3081 5.78369Z" fill="white"/>
<path d="M47.601 7.69333C47.5544 7.77183 47.4567 7.8901 47.308 8.04812C47.1647 8.20419 46.9763 8.36386 46.7426 8.52713C46.5089 8.6904 46.234 8.82484 45.918 8.93045C45.4346 9.08903 44.9745 9.15566 44.5377 9.13035C44.1044 9.09757 43.7058 8.98744 43.3419 8.79994C42.9834 8.6105 42.671 8.35827 42.4045 8.04327C42.1381 7.72827 41.9318 7.3641 41.7856 6.95076C41.6218 6.48782 41.5406 6.03909 41.5419 5.60457C41.5487 5.1681 41.632 4.76352 41.7916 4.39082C41.9567 4.01618 42.1938 3.68737 42.503 3.40439C42.8121 3.12142 43.1871 2.90195 43.628 2.74599C44.0359 2.60173 44.4163 2.52916 44.7695 2.52826C45.1226 2.52737 45.4208 2.55521 45.664 2.61179L45.5934 3.91101C45.4186 3.85504 45.196 3.81287 44.9255 3.78453C44.6586 3.74872 44.3764 3.78345 44.0788 3.88872C43.8473 3.9706 43.6416 4.09915 43.4618 4.27438C43.2855 4.44215 43.1459 4.64346 43.0429 4.8783C42.9455 5.11119 42.8918 5.3627 42.882 5.63282C42.8702 5.89743 42.913 6.16751 43.0105 6.44307C43.1138 6.73517 43.2497 6.98784 43.4181 7.20109C43.5921 7.41239 43.7901 7.57795 44.0123 7.69778C44.2326 7.81209 44.4695 7.8771 44.7231 7.89281C44.9822 7.90658 45.2523 7.86375 45.5334 7.76432C45.8585 7.64931 46.1183 7.4985 46.3128 7.31191C46.5072 7.12532 46.6446 6.95272 46.7249 6.7941L47.601 7.69333Z" fill="white"/>
<path d="M51.9203 0.541298L53.4685 6.80663L52.2341 7.11164L51.6052 4.56635L48.8045 5.25841L49.4334 7.8037L48.1991 8.10871L46.6509 1.84338L47.8853 1.53837L48.51 4.06663L51.3107 3.37457L50.6859 0.846309L51.9203 0.541298Z" fill="white"/>
<path d="M55.8922 -0.0467367L59.9018 -0.485863L60.0355 0.734461L57.2897 1.03517L57.4492 2.49084L59.8288 2.23023L59.9624 3.45055L57.5828 3.71116L57.8587 6.23026L56.5948 6.36868L55.8922 -0.0467367Z" fill="white"/>
<path d="M62.1855 3.51024C62.1901 3.71479 62.2559 3.90919 62.3828 4.09345C62.5098 4.2777 62.6739 4.42604 62.8752 4.53845C63.0824 4.65073 63.3058 4.70417 63.5454 4.69878C63.8084 4.69285 64.0409 4.62915 64.2428 4.50765C64.4447 4.38616 64.602 4.23059 64.7147 4.04094C64.8332 3.85116 64.8902 3.65399 64.8856 3.44944L64.794 -0.618217L66.0476 -0.646446L66.1398 3.44751C66.1504 3.9209 66.043 4.34432 65.8175 4.71778C65.5919 5.08539 65.2828 5.37887 64.8901 5.59822C64.4973 5.81172 64.0583 5.92393 63.5733 5.93485C63.094 5.94564 62.6534 5.85324 62.2514 5.65764C61.8551 5.45606 61.536 5.17673 61.294 4.81964C61.052 4.45671 60.9256 4.03855 60.9149 3.56516L60.8227 -0.528791L62.0939 -0.557415L62.1855 3.51024Z" fill="white"/>
<path d="M67.2446 -0.555671L68.5132 -0.471627L68.1678 4.7431L71.1951 4.94365L71.114 6.16858L66.818 5.88399L67.2446 -0.555671Z" fill="white"/>
<path d="M72.5986 -0.115701L73.8561 0.0722338L73.0836 5.24099L76.0843 5.68944L75.9028 6.90357L71.6447 6.26719L72.5986 -0.115701Z" fill="white"/>
<path d="M81.5344 1.6512L82.0639 6.63843L81.3971 6.29187L84.282 2.4401L85.7317 2.85633L81.0365 8.53294L80.0679 1.23013L81.5344 1.6512Z" fill="white"/>
<path d="M86.3583 3.16793L87.553 3.603L85.3446 9.66718L84.1499 9.23211L86.3583 3.16793Z" fill="white"/>
<path d="M86.5084 10.0872L89.1457 4.19686L90.9064 4.98519C91.4986 5.25036 91.9634 5.56414 92.3008 5.92654C92.6381 6.28895 92.8664 6.67301 92.9858 7.07874C93.1105 7.48685 93.1504 7.89859 93.1053 8.31396C93.0602 8.72932 92.9553 9.12107 92.7904 9.48922C92.5946 9.92672 92.3377 10.2857 92.02 10.5662C91.71 10.8437 91.3628 11.0469 90.9784 11.1759C90.5964 11.2995 90.1968 11.3479 89.7796 11.3213C89.3648 11.2893 88.9574 11.1837 88.5572 11.0045L86.5084 10.0872ZM88.1705 9.48631L88.8588 9.79448C89.1522 9.92587 89.4357 10.008 89.7093 10.0408C89.9852 10.0682 90.242 10.0455 90.4796 9.97255C90.7226 9.90199 90.9395 9.77497 91.1306 9.59149C91.3293 9.40507 91.4944 9.16514 91.6258 8.87169C91.7978 8.48754 91.8735 8.14675 91.853 7.84932C91.8402 7.54895 91.7702 7.29026 91.6432 7.07326C91.5215 6.85866 91.3754 6.68434 91.2048 6.55033C91.0366 6.41097 90.8859 6.31143 90.7525 6.25171L89.8081 5.82888L88.1705 9.48631Z" fill="white"/>
<path d="M94.9588 6.9312L98.7927 9.09411L98.1895 10.1633L95.463 8.62515L94.7866 9.82418L97.1999 11.1857L96.5967 12.2549L94.1834 10.8934L93.4983 12.1077L96.3317 13.7062L95.7285 14.7754L91.7877 12.5522L94.9588 6.9312Z" fill="white"/>
<path d="M97.6708 12.2026C97.9258 11.8389 98.2369 11.5429 98.6039 11.3148C98.971 11.0867 99.3638 10.9338 99.7824 10.856C100.209 10.7769 100.636 10.7797 101.062 10.8643C101.488 10.9489 101.888 11.1222 102.261 11.384C102.63 11.6424 102.926 11.9575 103.151 12.3293C103.376 12.7012 103.524 13.1012 103.595 13.5294C103.674 13.9562 103.669 14.3809 103.579 14.8037C103.495 15.2299 103.325 15.6249 103.07 15.9886C102.808 16.3619 102.491 16.661 102.119 16.8858C101.752 17.1139 101.355 17.2635 100.926 17.3345C100.506 17.404 100.085 17.3941 99.6621 17.3047C99.2393 17.2152 98.8436 17.0413 98.4751 16.7829C98.1018 16.5211 97.801 16.2067 97.5729 15.8396C97.3448 15.4726 97.1918 15.0798 97.1141 14.6611C97.0446 14.2411 97.0545 13.8196 97.1439 13.3968C97.2334 12.974 97.409 12.576 97.6708 12.2026ZM98.7477 12.9578C98.5832 13.1923 98.4695 13.441 98.4065 13.7039C98.3517 13.9654 98.3431 14.2271 98.3807 14.4891C98.4265 14.7496 98.5173 14.9918 98.6531 15.2156C98.7937 15.4427 98.9813 15.6385 99.2158 15.8029C99.4408 15.9607 99.6792 16.0636 99.931 16.1117C100.188 16.1632 100.442 16.1627 100.693 16.1102C100.947 16.0529 101.185 15.9523 101.408 15.8084C101.633 15.6596 101.828 15.468 101.993 15.2334C102.161 14.9941 102.274 14.7414 102.332 14.4751C102.395 14.2123 102.406 13.9522 102.365 13.695C102.332 13.4364 102.248 13.1952 102.112 12.9714C101.976 12.7476 101.793 12.5552 101.563 12.3941C101.334 12.233 101.09 12.1267 100.834 12.0753C100.577 12.0238 100.319 12.025 100.06 12.0789C99.8044 12.128 99.5636 12.227 99.3379 12.3757C99.1122 12.5245 98.9155 12.7185 98.7477 12.9578Z" fill="white"/>
<path d="M106.279 19.808C106.404 19.6767 106.555 19.6109 106.733 19.6106C106.915 19.6144 107.063 19.6707 107.178 19.7795C107.283 19.8802 107.341 20.0194 107.349 20.197C107.362 20.3786 107.306 20.5351 107.181 20.6663C107.048 20.8061 106.892 20.872 106.714 20.864C106.545 20.8558 106.407 20.8013 106.301 20.7005C106.187 20.5917 106.119 20.4508 106.098 20.2776C106.086 20.1043 106.146 19.9477 106.279 19.808Z" fill="white"/>
<path d="M115.839 24.382L116.691 25.6051L114.154 29.0503L114.11 28.8347L117.251 28.1114L116.155 29.5908L111.818 30.3459L115.839 24.382ZM117.688 27.037L118.41 28.0731L116.101 31.6158L116 31.4086L119.864 30.1597L120.646 31.2821L113.732 33.0628L117.688 27.037Z" fill="white"/>
<path d="M114.454 33.6606L121.729 32.9229L121.763 32.9841L117.333 38.8018L116.613 37.5165L119.821 33.5895L120.822 34.0843L115.066 34.7546L114.454 33.6606ZM117.461 34.2576L118.408 35.9484L117.693 36.8613L116.335 34.436L117.461 34.2576Z" fill="white"/>
<path d="M122.771 35.398L124.606 39.3414L123.493 39.8592L122.831 38.4361L118.092 40.6406L117.556 39.4878L122.294 37.2833L121.658 35.9158L122.771 35.398Z" fill="white"/>
<path d="M121.043 46.7281C120.964 46.6827 120.844 46.5869 120.684 46.4406C120.526 46.2999 120.363 46.1139 120.196 45.8828C120.029 45.6517 119.891 45.3789 119.78 45.0645C119.614 44.5836 119.54 44.1246 119.559 43.6875C119.585 43.2538 119.689 42.8535 119.87 42.4867C120.054 42.1254 120.302 41.809 120.613 41.5377C120.923 41.2664 121.284 41.0545 121.695 40.9019C122.156 40.7309 122.603 40.6428 123.038 40.6373C123.474 40.6374 123.88 40.7143 124.255 40.8681C124.632 41.0274 124.965 41.2594 125.252 41.5641C125.54 41.8688 125.765 42.2404 125.928 42.6788C126.079 43.0843 126.157 43.4636 126.164 43.8167C126.17 44.1698 126.147 44.4684 126.094 44.7125L124.794 44.662C124.847 44.4864 124.886 44.2631 124.91 43.9922C124.942 43.7248 124.902 43.4431 124.793 43.1472C124.707 42.917 124.575 42.7134 124.397 42.5363C124.227 42.3626 124.023 42.2262 123.787 42.1269C123.553 42.0331 123.3 41.9833 123.03 41.9777C122.765 41.97 122.496 42.017 122.222 42.1187C121.931 42.2266 121.681 42.3664 121.47 42.5381C121.262 42.7153 121.099 42.9159 120.983 43.14C120.872 43.362 120.811 43.5999 120.799 43.8537C120.789 44.113 120.836 44.3824 120.94 44.6618C121.06 44.9852 121.215 45.2426 121.404 45.4341C121.594 45.6256 121.769 45.7603 121.929 45.8381L121.043 46.7281Z" fill="white"/>
<path d="M128.26 50.9325L122.019 52.5778L121.695 51.3484L124.23 50.68L123.495 47.8904L120.959 48.5588L120.635 47.3293L126.876 45.684L127.2 46.9135L124.682 47.5774L125.417 50.367L127.935 49.703L128.26 50.9325Z" fill="white"/>
<path d="M128.908 54.8935L129.409 58.8958L128.191 59.0484L127.847 56.3077L126.394 56.4897L126.692 58.865L125.474 59.0176L125.176 56.6423L122.662 56.9573L122.504 55.6957L128.908 54.8935Z" fill="white"/>
<path d="M125.45 61.241C125.246 61.2488 125.053 61.3175 124.87 61.4473C124.688 61.577 124.542 61.7434 124.433 61.9465C124.324 62.1554 124.274 62.3795 124.283 62.6191C124.293 62.8819 124.36 63.1134 124.485 63.3134C124.609 63.5134 124.767 63.6683 124.959 63.7781C125.15 63.8937 125.348 63.9476 125.553 63.9398L129.618 63.7858L129.666 65.0388L125.574 65.1939C125.101 65.2118 124.676 65.1109 124.299 64.8912C123.928 64.6712 123.63 64.3666 123.404 63.9774C123.185 63.5879 123.066 63.1507 123.047 62.6659C123.029 62.1869 123.115 61.7449 123.304 61.3399C123.5 60.9405 123.774 60.6172 124.127 60.3698C124.487 60.1222 124.903 59.9894 125.376 59.9715L129.468 59.8164L129.516 61.087L125.45 61.241Z" fill="white"/>
<path d="M129.593 66.2321L129.529 67.5019L124.31 67.2375L124.156 70.2676L122.93 70.2055L123.148 65.9055L129.593 66.2321Z" fill="white"/>
<path d="M129.233 71.6019L129.065 72.8621L123.885 72.1691L123.482 75.1763L122.266 75.0135L122.837 70.7461L129.233 71.6019Z" fill="white"/>
<path d="M127.606 80.5602L122.628 81.1671L122.964 80.4949L126.86 83.3197L126.467 84.7756L120.718 80.1691L128.005 79.0873L127.606 80.5602Z" fill="white"/>
<path d="M126.169 85.405L125.752 86.6064L119.655 84.4924L120.071 83.2911L126.169 85.405Z" fill="white"/>
<path d="M119.25 85.6632L125.181 88.2077L124.421 89.9805C124.165 90.5768 123.858 91.0465 123.501 91.3895C123.144 91.7325 122.764 91.9668 122.36 92.0926C121.954 92.2237 121.543 92.2699 121.127 92.2314C120.711 92.1929 120.318 92.0941 119.947 91.9351C119.506 91.7461 119.143 91.4949 118.858 91.1816C118.576 90.876 118.367 90.5321 118.232 90.1498C118.102 89.7698 118.048 89.371 118.068 88.9534C118.093 88.5382 118.192 88.1291 118.365 87.7261L119.25 85.6632ZM119.877 87.3157L119.58 88.0087C119.453 88.3042 119.375 88.5889 119.347 88.8629C119.324 89.1393 119.351 89.3956 119.427 89.6321C119.502 89.8739 119.632 90.0889 119.819 90.277C120.008 90.4728 120.251 90.6341 120.546 90.7609C120.933 90.9268 121.275 90.9972 121.572 90.972C121.872 90.9544 122.13 90.8804 122.344 90.75C122.557 90.625 122.729 90.4761 122.86 90.3035C122.997 90.1331 123.094 89.9808 123.152 89.8465L123.56 88.8956L119.877 87.3157Z" fill="white"/>
<path d="M122.535 94.0646L120.432 97.9316L119.354 97.3451L120.85 94.595L119.64 93.9373L118.316 96.3715L117.238 95.785L118.562 93.3508L117.337 92.6846L115.783 95.5425L114.704 94.956L116.866 90.9811L122.535 94.0646Z" fill="white"/>
<path d="M117.31 96.8551C117.678 97.1045 117.979 97.4109 118.212 97.7743C118.446 98.1378 118.605 98.5282 118.689 98.9456C118.775 99.3711 118.779 99.7975 118.701 100.225C118.623 100.652 118.456 101.055 118.2 101.432C117.947 101.805 117.637 102.106 117.269 102.337C116.9 102.567 116.503 102.721 116.076 102.799C115.65 102.885 115.225 102.886 114.801 102.803C114.374 102.725 113.976 102.562 113.608 102.312C113.231 102.056 112.927 101.744 112.697 101.376C112.463 101.012 112.307 100.617 112.229 100.19C112.153 99.7711 112.157 99.3496 112.24 98.9254C112.323 98.5013 112.49 98.103 112.743 97.7304C112.999 97.3531 113.309 97.0475 113.672 96.8137C114.036 96.5799 114.426 96.4209 114.843 96.3367C115.262 96.2606 115.684 96.264 116.108 96.3468C116.532 96.4297 116.933 96.5991 117.31 96.8551ZM116.572 97.9436C116.335 97.7828 116.084 97.6729 115.82 97.6141C115.558 97.5633 115.296 97.5588 115.035 97.6005C114.775 97.6503 114.534 97.7448 114.313 97.8841C114.088 98.0282 113.895 98.2188 113.734 98.4559C113.58 98.6832 113.481 98.9232 113.437 99.1758C113.389 99.4332 113.394 99.687 113.45 99.9371C113.511 100.191 113.616 100.427 113.763 100.647C113.915 100.871 114.11 101.063 114.347 101.224C114.589 101.388 114.843 101.497 115.11 101.551C115.374 101.61 115.634 101.617 115.891 101.572C116.149 101.535 116.389 101.447 116.61 101.307C116.832 101.168 117.022 100.982 117.179 100.75C117.337 100.518 117.439 100.273 117.487 100.016C117.534 99.7583 117.529 99.5005 117.471 99.2422C117.418 98.9873 117.315 98.7481 117.163 98.5247C117.011 98.3014 116.814 98.1077 116.572 97.9436Z" fill="white"/>
<path d="M108.073 107.444C108.201 107.572 108.263 107.725 108.259 107.903C108.25 108.085 108.19 108.231 108.078 108.343C107.975 108.446 107.834 108.5 107.656 108.503C107.474 108.511 107.319 108.451 107.191 108.323C107.055 108.186 106.994 108.029 107.006 107.851C107.019 107.682 107.077 107.546 107.18 107.442C107.292 107.331 107.435 107.267 107.609 107.251C107.782 107.243 107.937 107.307 108.073 107.444Z" fill="white"/>
<path d="M103.246 116.887L102.001 117.707L98.6244 115.079L98.8411 115.041L99.4809 118.2L98.0311 117.065L97.3913 112.71L103.246 116.887ZM100.543 118.666L99.4884 119.36L96.0082 116.957L96.218 116.861L97.364 120.757L96.2212 121.509L94.6245 114.551L100.543 118.666Z" fill="white"/>
<path d="M94.0149 115.251L94.5606 122.543L94.4985 122.576L88.7995 117.994L90.1034 117.308L93.9445 120.618L93.4235 121.605L92.905 115.835L94.0149 115.251ZM93.3388 118.242L91.6236 119.144L90.7299 118.405L93.1901 117.111L93.3388 118.242Z" fill="white"/>
<path d="M92.0587 123.519L88.068 125.249L87.5799 124.122L89.0201 123.498L86.942 118.703L88.1086 118.197L90.1867 122.993L91.5706 122.393L92.0587 123.519Z" fill="white"/>
<path d="M80.7816 121.49C80.8291 121.412 80.9281 121.295 81.0785 121.138C81.2235 120.984 81.4136 120.826 81.6491 120.666C81.8846 120.505 82.1609 120.374 82.4782 120.271C82.9632 120.118 83.424 120.057 83.8605 120.087C84.2934 120.124 84.6908 120.239 85.0526 120.43C85.409 120.624 85.7186 120.879 85.9816 121.197C86.2446 121.515 86.4469 121.882 86.5885 122.297C86.7472 122.761 86.8235 123.211 86.8174 123.645C86.8057 124.082 86.7181 124.485 86.5544 124.856C86.3852 125.229 86.1444 125.555 85.8322 125.835C85.5199 126.114 85.1425 126.33 84.6999 126.481C84.2905 126.621 83.9093 126.689 83.5562 126.686C83.2031 126.683 82.9052 126.652 82.6626 126.593L82.7475 125.294C82.9217 125.352 83.1438 125.397 83.414 125.428C83.6804 125.467 83.9631 125.435 84.2618 125.333C84.4942 125.254 84.7012 125.128 84.883 124.954C85.0611 124.788 85.2029 124.589 85.3084 124.355C85.4084 124.123 85.4649 123.872 85.4777 123.602C85.4924 123.338 85.4526 123.067 85.3581 122.791C85.258 122.497 85.1249 122.243 84.9588 122.028C84.7872 121.815 84.591 121.647 84.3701 121.525C84.1511 121.408 83.9149 121.341 83.6615 121.322C83.4026 121.306 83.132 121.345 82.8499 121.442C82.5235 121.553 82.262 121.701 82.0656 121.886C81.8691 122.07 81.7298 122.241 81.6478 122.399L80.7816 121.49Z" fill="white"/>
<path d="M76.3801 128.592L74.9019 122.309L76.1396 122.018L76.7401 124.57L79.5483 123.91L78.9478 121.358L80.1855 121.066L81.6636 127.349L80.426 127.64L79.8295 125.105L77.0213 125.765L77.6177 128.3L76.3801 128.592Z" fill="white"/>
<path d="M72.4089 129.135L68.3948 129.531L68.2743 128.309L71.0231 128.038L70.8795 126.581L68.4972 126.816L68.3767 125.594L70.759 125.359L70.5104 122.837L71.7758 122.713L72.4089 129.135Z" fill="white"/>
<path d="M66.1582 125.509C66.1549 125.304 66.0903 125.109 65.9646 124.924C65.8388 124.739 65.6756 124.59 65.4749 124.476C65.2685 124.362 65.0454 124.308 64.8058 124.311C64.5427 124.316 64.3099 124.378 64.1072 124.498C63.9045 124.618 63.7462 124.773 63.6324 124.962C63.5127 125.151 63.4545 125.348 63.4578 125.552L63.5238 129.621L62.2701 129.641L62.2036 125.546C62.1959 125.073 62.306 124.65 62.5338 124.278C62.7617 123.912 63.0727 123.62 63.4668 123.404C63.8609 123.193 64.3005 123.083 64.7857 123.075C65.265 123.067 65.705 123.163 66.1058 123.361C66.5008 123.565 66.8182 123.846 67.0579 124.205C67.2977 124.569 67.4214 124.988 67.4291 125.462L67.4955 129.556L66.2242 129.577L66.1582 125.509Z" fill="white"/>
<path d="M61.0486 129.526L59.7809 129.428L60.1828 124.217L57.1578 123.984L57.2522 122.76L61.5448 123.091L61.0486 129.526Z" fill="white"/>
<path d="M55.7007 129.027L54.4454 128.825L55.2746 123.665L52.2791 123.183L52.4739 121.971L56.7248 122.655L55.7007 129.027Z" fill="white"/>
<path d="M46.7796 127.162L46.3058 122.169L46.9687 122.523L44.041 126.342L42.5961 125.91L47.3544 120.286L48.2413 127.599L46.7796 127.162Z" fill="white"/>
<path d="M41.9779 125.592L40.7881 125.144L43.063 119.104L44.2528 119.553L41.9779 125.592Z" fill="white"/>
<path d="M41.9015 118.67L39.2005 124.531L37.4485 123.724C36.8592 123.452 36.3978 123.133 36.0644 122.767C35.731 122.401 35.5068 122.015 35.3919 121.608C35.2716 121.198 35.2362 120.786 35.2858 120.371C35.3353 119.956 35.4445 119.566 35.6133 119.2C35.8139 118.764 36.0746 118.408 36.3953 118.131C36.7083 117.857 37.0577 117.657 37.4435 117.533C37.8268 117.413 38.2269 117.369 38.6438 117.4C39.0582 117.437 39.4645 117.547 39.8627 117.73L41.9015 118.67ZM40.2329 119.252L39.548 118.937C39.256 118.802 38.9734 118.717 38.7003 118.681C38.4247 118.651 38.1676 118.671 37.9293 118.741C37.6855 118.809 37.4672 118.934 37.2742 119.115C37.0734 119.299 36.9057 119.538 36.7712 119.83C36.595 120.212 36.5156 120.552 36.533 120.849C36.5425 121.15 36.6097 121.409 36.7343 121.628C36.8537 121.844 36.9979 122.02 37.167 122.155C37.3337 122.297 37.4834 122.398 37.6161 122.459L38.5559 122.892L40.2329 119.252Z" fill="white"/>
<path d="M33.4181 121.731L29.6083 119.526L30.2232 118.464L32.9326 120.032L33.6222 118.84L31.2239 117.452L31.8389 116.39L34.2371 117.778L34.9355 116.571L32.1198 114.942L32.7347 113.879L36.6508 116.146L33.4181 121.731Z" fill="white"/>
<path d="M30.7657 116.435C30.5067 116.796 30.1925 117.089 29.823 117.313C29.4535 117.537 29.0591 117.686 28.6396 117.759C28.212 117.834 27.7856 117.826 27.3604 117.737C26.9352 117.648 26.5373 117.47 26.1669 117.204C25.8011 116.942 25.5079 116.624 25.2872 116.249C25.0664 115.875 24.9229 115.474 24.8565 115.045C24.782 114.617 24.7917 114.192 24.8857 113.77C24.975 113.345 25.1491 112.952 25.4081 112.591C25.6739 112.221 25.994 111.925 26.3682 111.704C26.7377 111.48 27.1369 111.335 27.5658 111.269C27.9866 111.204 28.4079 111.218 28.8297 111.312C29.2515 111.406 29.6453 111.584 30.011 111.847C30.3815 112.112 30.6788 112.43 30.903 112.8C31.1271 113.169 31.2758 113.564 31.349 113.983C31.414 114.404 31.3995 114.825 31.3055 115.247C31.2115 115.669 31.0316 116.065 30.7657 116.435ZM29.6971 115.669C29.8641 115.436 29.9805 115.188 30.0463 114.926C30.1039 114.665 30.1153 114.404 30.0806 114.141C30.0376 113.88 29.9495 113.637 29.8161 113.412C29.6779 113.183 29.4925 112.986 29.2597 112.819C29.0365 112.658 28.7992 112.553 28.5479 112.502C28.2918 112.448 28.038 112.446 27.7865 112.495C27.5315 112.55 27.2921 112.648 27.0682 112.789C26.8409 112.936 26.6438 113.125 26.4768 113.358C26.3064 113.595 26.1907 113.847 26.1296 114.113C26.0638 114.375 26.05 114.635 26.0882 114.892C26.1182 115.151 26.1999 115.393 26.3333 115.619C26.4667 115.844 26.6474 116.038 26.8754 116.202C27.1034 116.365 27.3454 116.474 27.6015 116.528C27.8576 116.583 28.1155 116.584 28.3752 116.533C28.6315 116.487 28.8733 116.391 29.1005 116.244C29.3278 116.098 29.5267 115.906 29.6971 115.669Z" fill="white"/>
<path d="M20.4214 106.926C20.2898 107.05 20.1352 107.108 19.9576 107.099C19.776 107.086 19.631 107.022 19.5225 106.907C19.4221 106.801 19.3723 106.659 19.3731 106.481C19.3699 106.299 19.4341 106.146 19.5657 106.021C19.7059 105.889 19.8646 105.831 20.0419 105.848C20.211 105.865 20.3458 105.927 20.4462 106.033C20.5547 106.148 20.6148 106.292 20.6265 106.466C20.6299 106.64 20.5616 106.793 20.4214 106.926Z" fill="white"/>
<path d="M11.1124 101.852L10.3262 100.585L13.042 97.2793L13.0739 97.4969L9.89987 98.0532L11.0726 96.6337L15.4428 96.109L11.1124 101.852ZM9.40589 99.1029L8.73994 98.0301L11.2331 94.6145L11.3235 94.8267L7.3988 95.8696L6.67736 94.7074L13.6751 93.2946L9.40589 99.1029Z" fill="white"/>
<path d="M12.992 92.6654L5.68796 93.0175L5.65697 92.9546L10.3886 87.3792L11.0394 88.7007L7.62861 92.4527L6.65544 91.9057L12.438 91.5405L12.992 92.6654ZM10.0201 91.9103L9.16392 90.1718L9.92604 89.2979L11.1542 91.7916L10.0201 91.9103Z" fill="white"/>
<path d="M4.77457 90.4862L3.15163 86.4511L4.29058 85.993L4.87628 87.4492L9.72496 85.4991L10.1994 86.6787L5.35073 88.6289L5.91352 90.0282L4.77457 90.4862Z" fill="white"/>
<path d="M7.10283 79.2663C7.17952 79.3159 7.29402 79.418 7.44632 79.5726C7.59689 79.7216 7.74934 79.9159 7.90369 80.1556C8.05803 80.3952 8.18201 80.675 8.27563 80.9948C8.41588 81.4838 8.46513 81.9461 8.42337 82.3817C8.37429 82.8134 8.24921 83.2075 8.04813 83.5642C7.84531 83.9152 7.58149 84.2179 7.25667 84.4723C6.93185 84.7267 6.56016 84.9191 6.1416 85.0497C5.67282 85.1959 5.22135 85.2601 4.78719 85.2424C4.35128 85.2191 3.95013 85.1207 3.58371 84.9472C3.21556 84.7681 2.89592 84.5187 2.62479 84.1991C2.35367 83.8795 2.1485 83.4965 2.00927 83.05C1.88048 82.6371 1.8223 82.2541 1.83471 81.9012C1.84713 81.5483 1.88619 81.2514 1.95189 81.0104L3.24753 81.1299C3.18501 81.3025 3.13449 81.5234 3.09597 81.7926C3.05012 82.058 3.07419 82.3413 3.16817 82.6427C3.24127 82.8771 3.36198 83.0875 3.5303 83.2738C3.69131 83.4563 3.88721 83.6034 4.118 83.7151C4.34706 83.8212 4.59636 83.8843 4.86592 83.9044C5.1299 83.9262 5.40141 83.8935 5.68044 83.8065C5.97622 83.7143 6.23384 83.588 6.45328 83.4277C6.67099 83.2619 6.8439 83.0702 6.97202 82.8526C7.09455 82.6368 7.16844 82.4025 7.1937 82.1497C7.21722 81.8913 7.1846 81.6198 7.09585 81.3352C6.99316 81.0059 6.85226 80.7406 6.67313 80.5393C6.494 80.338 6.3267 80.1942 6.17121 80.108L7.10283 79.2663Z" fill="white"/>
<path d="M0.121469 74.682L6.4407 73.3711L6.69897 74.6161L4.13178 75.1486L4.71779 77.9734L7.28498 77.4408L7.54325 78.6858L1.22402 79.9967L0.96575 78.7518L3.51576 78.2228L2.92976 75.398L0.379741 75.927L0.121469 74.682Z" fill="white"/>
<path d="M-0.318017 70.699L-0.607814 66.6758L0.616634 66.5876L0.815082 69.3426L2.27567 69.2374L2.10369 66.8497L3.32813 66.7615L3.50012 69.1492L6.02773 68.9671L6.11908 70.2353L-0.318017 70.699Z" fill="white"/>
<path d="M3.46566 64.5351C3.67024 64.5384 3.86704 64.4802 4.05607 64.3605C4.24511 64.2408 4.39969 64.0825 4.51982 63.8857C4.64004 63.683 4.70209 63.4618 4.70598 63.2222C4.71025 62.9591 4.6556 62.7244 4.54202 62.5179C4.42844 62.3115 4.27908 62.1482 4.09393 62.0283C3.90888 61.9025 3.71407 61.838 3.50949 61.8347L-0.558655 61.7686L-0.538303 60.5149L3.55615 60.5813C4.0296 60.589 4.44854 60.7127 4.81299 60.9525C5.17158 61.1922 5.45287 61.5125 5.65684 61.9134C5.85496 62.3141 5.95009 62.7571 5.94221 63.2422C5.93443 63.7215 5.82503 64.1583 5.614 64.5524C5.39722 64.9406 5.10574 65.2487 4.73955 65.4766C4.36751 65.7044 3.94477 65.8145 3.47132 65.8068L-0.623128 65.7403L-0.602491 64.469L3.46566 64.5351Z" fill="white"/>
<path d="M-0.409725 59.3346L-0.278808 58.0699L4.91957 58.608L5.23197 55.5901L6.45306 55.7165L6.00975 59.9991L-0.409725 59.3346Z" fill="white"/>
<path d="M0.231411 53.9985L0.466171 52.7489L5.60247 53.7138L6.16266 50.732L7.36917 50.9586L6.57423 55.1901L0.231411 53.9985Z" fill="white"/>
<path d="M2.32986 45.1361L7.3335 44.795L6.96206 45.4483L3.22175 42.4202L3.69232 40.9873L9.18794 45.8931L1.85382 46.5857L2.32986 45.1361Z" fill="white"/>
<path d="M4.02297 40.3757L4.50256 39.1982L10.4796 41.6325L10 42.81L4.02297 40.3757Z" fill="white"/>
<path d="M10.9484 40.4821L5.16067 37.6267L6.01419 35.8967C6.30129 35.3148 6.63221 34.862 7.00696 34.5385C7.3817 34.2149 7.77403 34.001 8.18393 33.8969C8.59641 33.7875 9.00935 33.7631 9.42275 33.8236C9.83614 33.8842 10.2237 34.0037 10.5854 34.1821C11.0153 34.3942 11.3645 34.6643 11.6329 34.9923C11.8986 35.3124 12.0888 35.6669 12.2032 36.0559C12.3125 36.4422 12.346 36.8433 12.3038 37.2593C12.2563 37.6726 12.1356 38.0758 11.9416 38.469L10.9484 40.4821ZM10.41 38.7987L10.7437 38.1225C10.8859 37.8341 10.9785 37.5539 11.0215 37.2818C11.0593 37.0071 11.0462 36.7496 10.9821 36.5094C10.9207 36.264 10.8019 36.0424 10.6257 35.8447C10.4468 35.6391 10.2132 35.4652 9.92484 35.3229C9.54738 35.1367 9.20966 35.0483 8.91167 35.0577C8.61103 35.0593 8.34991 35.1195 8.12832 35.2384C7.90932 35.3519 7.72967 35.4915 7.58938 35.6569C7.44384 35.8198 7.33874 35.9667 7.27408 36.0978L6.81628 37.0257L10.41 38.7987Z" fill="white"/>
<path d="M8.11342 31.917L10.418 28.1666L11.4639 28.8093L9.82502 31.4765L10.998 32.1972L12.4486 29.8364L13.4946 30.4791L12.0439 32.8399L13.2318 33.5699L14.935 30.7981L15.9809 31.4408L13.612 35.2959L8.11342 31.917Z" fill="white"/>
<path d="M13.4787 29.4073C13.1246 29.1388 12.8405 28.817 12.6261 28.4417C12.4118 28.0665 12.2736 27.6682 12.2115 27.247C12.1483 26.8176 12.1669 26.3915 12.2673 25.9688C12.3677 25.5461 12.5557 25.153 12.8312 24.7897C13.1031 24.431 13.4291 24.1463 13.809 23.9355C14.1889 23.7247 14.5941 23.5918 15.0247 23.5367C15.4541 23.4735 15.8784 23.4944 16.2976 23.5995C16.7203 23.6999 17.1087 23.8844 17.4627 24.1528C17.826 24.4283 18.1131 24.756 18.3239 25.1359C18.5382 25.5112 18.6729 25.9141 18.728 26.3446C18.7819 26.767 18.7563 27.1877 18.6512 27.6069C18.5461 28.0261 18.3576 28.415 18.0856 28.7737C17.8101 29.1371 17.4848 29.4259 17.1095 29.6402C16.7342 29.8546 16.336 29.9928 15.9148 30.0549C15.4924 30.1088 15.0716 30.0832 14.6525 29.9781C14.2333 29.873 13.842 29.6827 13.4787 29.4073ZM14.2734 28.3592C14.5016 28.5322 14.7459 28.6551 15.0063 28.7278C15.2655 28.7923 15.5267 28.8106 15.7899 28.7827C16.052 28.7467 16.2974 28.665 16.526 28.5376C16.7582 28.4055 16.9608 28.2253 17.1339 27.9971C17.2999 27.7781 17.4116 27.5437 17.469 27.2938C17.53 27.0393 17.5389 26.7856 17.4958 26.5328C17.4481 26.2765 17.3564 26.0346 17.2208 25.8071C17.0805 25.576 16.8963 25.374 16.668 25.2009C16.4351 25.0243 16.1867 24.902 15.9228 24.834C15.6625 24.7613 15.403 24.7406 15.1445 24.772C14.8848 24.7952 14.6406 24.8705 14.412 24.9979C14.1833 25.1253 13.9842 25.3008 13.8147 25.5244C13.6452 25.748 13.5299 25.9871 13.4689 26.2417C13.408 26.4962 13.3996 26.754 13.4438 27.0149C13.4834 27.2724 13.5733 27.5166 13.7136 27.7477C13.8539 27.9787 14.0404 28.1826 14.2734 28.3592Z" fill="white"/>
<path d="M21.397 21.0882C21.2704 20.9585 21.2103 20.8048 21.2166 20.6271C21.2271 20.4454 21.2888 20.2994 21.4018 20.1891C21.5064 20.0871 21.6476 20.035 21.8253 20.0331C22.0073 20.027 22.1616 20.0889 22.2881 20.2186C22.4229 20.3566 22.4829 20.5144 22.4684 20.692C22.4539 20.8613 22.3944 20.997 22.2898 21.0991C22.1768 21.2093 22.0334 21.2717 21.8596 21.2861C21.6859 21.2922 21.5317 21.2263 21.397 21.0882Z" fill="white"/>
</g>
<defs>
<clipPath id="clip0_55_355">
<rect width="129" height="129" fill="white"/>
</clipPath>
</defs>
</svg>
