<svg width="39" height="39" viewBox="0 0 39 39" fill="none" xmlns="http://www.w3.org/2000/svg">
<g clip-path="url(#clip0_55_575)">
<path d="M26.6547 18.2705C25.3496 18.2705 24.2867 19.3207 24.2824 20.6171C24.2776 21.9068 25.3456 22.9803 26.6377 22.9835C27.9329 22.9875 28.9969 21.923 28.9961 20.6266C28.9953 19.3262 27.9452 18.2705 26.6547 18.2705ZM26.6547 21.8199C25.9861 21.8199 25.4479 21.2917 25.4495 20.6369C25.4503 19.9564 25.9722 19.4317 26.6472 19.4309C27.3079 19.4301 27.8492 19.971 27.8437 20.629C27.8357 21.2853 27.3039 21.8199 26.6547 21.8199Z" fill="#465850"/>
<path d="M12.1004 14.8774C8.9674 14.8497 6.23614 17.4643 6.29047 20.7948C6.34163 23.9008 8.90156 26.5341 12.1654 26.5056C15.3567 26.4786 17.9222 23.8719 17.9282 20.7155C17.9329 17.4746 15.3365 14.8774 12.1004 14.8774ZM12.194 24.2312C10.0949 24.3272 8.40108 22.654 8.40465 20.6223C8.40861 18.5636 10.1048 16.9888 12.0235 17.0237C14.0155 17.0213 15.6323 18.6295 15.6268 20.6207C15.6216 22.6361 14.0329 24.1475 12.194 24.2312Z" fill="#465850"/>
<path d="M19.3829 0C8.6784 0 0 8.6784 0 19.3829C0 30.0875 8.6784 38.7659 19.3829 38.7659C30.0875 38.7659 38.7659 30.0875 38.7659 19.3829C38.7659 8.6784 30.0875 0 19.3829 0ZM30.5253 26.9089C29.3419 27.6608 28.0336 28.0173 26.636 28.0248C26.0491 28.0288 25.4641 27.9499 24.8911 27.8012C23.4943 27.4387 22.2954 26.7415 21.3079 25.6874C21.1771 25.5486 21.0545 25.4046 20.9165 25.248C20.3946 26.0257 19.881 26.7915 19.3544 27.5763C18.8309 26.7935 18.3233 26.0352 17.8184 25.2813C17.7835 25.2991 17.7736 25.3015 17.7665 25.3071C17.755 25.317 17.7447 25.3293 17.7363 25.3396C16.5418 26.7498 15.0392 27.6136 13.2097 27.9035C12.1913 28.0645 11.1836 28.007 10.1941 27.7338C8.79301 27.3487 7.60168 26.6098 6.63957 25.5184C5.69928 24.4524 5.11432 23.2135 4.8954 21.8053C4.64437 20.4918 4.94974 19.2243 5.02628 18.9173C5.24797 18.0242 5.63344 17.2033 6.16328 16.4486C6.20056 16.3951 6.21364 16.2999 6.1958 16.2365C5.97966 15.4441 5.60806 14.7231 5.17182 14.0326C5.06118 13.8578 4.92872 13.6956 4.80617 13.527C4.80617 13.5076 4.80617 13.4881 4.80617 13.4683C4.83037 13.4715 4.85495 13.4762 4.87914 13.4762C6.34531 13.477 7.81226 13.477 9.27882 13.4747C9.34307 13.4747 9.41366 13.4485 9.46878 13.4136C10.4991 12.7521 11.5972 12.2286 12.7505 11.8209C13.5825 11.5274 14.4312 11.2982 15.2981 11.1301C16.1369 10.9683 16.9796 10.8536 17.8319 10.7977C19.9092 10.6375 21.5701 10.8572 22.6746 11.0115C23.4887 11.1261 24.2863 11.3315 25.0743 11.573C26.45 11.9966 27.7472 12.5855 28.9679 13.3485C29.0524 13.4013 29.1662 13.4346 29.2661 13.4346C30.699 13.4409 32.1322 13.4386 33.5651 13.4402C33.6805 13.4402 33.7959 13.4524 33.9105 13.4588C33.9105 13.4866 33.9145 13.4985 33.9097 13.5052C33.8431 13.6075 33.7749 13.7098 33.7083 13.8125C33.2224 14.5577 32.8068 15.3386 32.5609 16.2004C32.5348 16.2924 32.5284 16.3701 32.5911 16.4613C33.8677 18.2939 34.2738 20.3054 33.7408 22.4743C33.2724 24.3759 32.1826 25.8583 30.5253 26.9089Z" fill="#465850"/>
<path d="M11.9911 18.2705C10.7184 18.2729 9.65201 19.3472 9.65479 20.6246C9.65796 21.9175 10.7236 22.9807 12.0196 22.9839C13.3077 22.9871 14.3749 21.9143 14.3721 20.6183C14.3682 19.31 13.3109 18.2681 11.9911 18.2705ZM12.0208 21.8322C11.3375 21.833 10.8108 21.3056 10.8108 20.6183C10.8108 19.9437 11.3367 19.4202 12.0176 19.4194C12.6875 19.4186 13.2268 19.954 13.23 20.623C13.232 21.2861 12.6882 21.8298 12.0208 21.8322Z" fill="#465850"/>
<path d="M26.532 14.8996C23.3519 14.9646 20.8629 17.5277 20.8344 20.6984C20.8344 23.919 23.4478 26.5504 26.657 26.5381C29.8784 26.5266 32.4796 23.9694 32.4772 20.7131C32.4756 17.3568 29.7527 14.8337 26.532 14.8996ZM26.7938 24.2319C24.7034 24.3124 23.0306 22.6456 23.0314 20.6254C23.0322 18.5814 24.7177 16.9888 26.6451 17.0237C28.6387 17.0197 30.2536 18.6255 30.2536 20.6171C30.2532 22.6159 28.666 24.1606 26.7938 24.2319Z" fill="#465850"/>
<path d="M21.7058 15.3235C22.9939 14.1417 24.5283 13.5218 26.2689 13.3901C24.2031 12.4725 22.025 12.0818 19.7828 12.0386C17.2351 11.989 14.7565 12.3646 12.3893 13.3576C14.1592 13.4651 15.7138 14.0826 17.0273 15.2763C18.338 16.4692 19.1062 17.9556 19.385 19.7045C19.6721 17.9762 20.4193 16.5029 21.7058 15.3235Z" fill="#465850"/>
</g>
<defs>
<clipPath id="clip0_55_575">
<rect width="38.7659" height="38.7659" fill="white"/>
</clipPath>
</defs>
</svg>
